<svg version="1.1" id="Layer_1" xmlns="http://www.w3.org/2000/svg" xmlns:xlink="http://www.w3.org/1999/xlink" x="0px" y="0px" width="230.5px" height="160.5px" viewBox="0 0 230.5 160.5" enable-background="new 0 0 230.5 160.5" xml:space="preserve">

<path fill="#F7F7F7" d="M178.334,74.818h-13.996c-0.943,0-1.709-0.765-1.709-1.709s0.766-1.71,1.709-1.71h13.996c0.944,0,1.71,0.766,1.71,1.71S179.278,74.818,178.334,74.818z"/>
<path fill="#F7F7F7" d="M194.518,94.482h-11.376c-0.944,0-1.71-0.765-1.71-1.709s0.766-1.71,1.71-1.71h11.376c0.945,0,1.711,0.766,1.711,1.71S195.463,94.482,194.518,94.482z"/>
<path fill="#F7F7F7" d="M143.344,97.998c-0.754,0-1.419-0.492-1.637-1.215l-6.997-23.179c-0.274-0.903,0.239-1.857,1.143-2.129c0.906-0.278,1.858,0.238,2.13,1.143l5.361,17.756l5.361-17.756c0.271-0.902,1.224-1.42,2.13-1.143c0.903,0.271,1.417,1.226,1.143,2.129l-6.998,23.179C144.764,97.506,144.098,97.998,143.344,97.998z"/>
<path fill="#F7F7F7" d="M195.827,97.998c-0.734,0-1.414-0.476-1.637-1.215l-5.361-17.757l-5.36,17.757c-0.27,0.903-1.217,1.419-2.13,1.143c-0.903-0.273-1.417-1.227-1.142-2.13l6.997-23.178c0.217-0.723,0.883-1.217,1.635-1.217c0.755,0,1.42,0.494,1.637,1.217l6.998,23.178c0.273,0.903-0.238,1.856-1.143,2.13C196.156,97.975,195.99,97.998,195.827,97.998z"/>
<path fill="#F7F7F7" d="M157.339,98.001c-0.944,0-1.71-0.766-1.71-1.709V79.997c0-0.945,0.766-1.71,1.71-1.71s1.71,0.765,1.71,1.71v16.295C159.049,97.235,158.283,98.001,157.339,98.001z"/>
<path fill="#F7F7F7" d="M209.811,98.001c-0.943,0-1.711-0.766-1.711-1.709V79.997c0-0.945,0.768-1.71,1.711-1.71c0.944,0,1.711,0.765,1.711,1.71v16.295C211.521,97.235,210.755,98.001,209.811,98.001z"/>
<path fill="none" stroke="#F7F7F7" stroke-width="1.4" stroke-linecap="round" stroke-linejoin="round" stroke-miterlimit="10" d="M209.811,96.292"/>
<path fill="none" stroke="#F7F7F7" stroke-width="1.4" stroke-linecap="round" stroke-linejoin="round" stroke-miterlimit="10" d="M209.811,73.109"/>
<path fill="#F7F7F7" d="M171.334,98.003c-0.945,0-1.71-0.765-1.71-1.709V73.267c0-0.944,0.765-1.71,1.71-1.71c0.943,0,1.71,0.766,1.71,1.71v23.027C173.044,97.238,172.277,98.003,171.334,98.003z"/>
<path fill="#FFFFFF" d="M202.827,94.541h-0.01c-0.93,0-1.693,0.736-1.743,1.655v0.087c0.008,0.967,0.787,1.752,1.753,1.752c0.961,0,1.741-0.785,1.746-1.754C204.568,95.325,203.784,94.541,202.827,94.541z"/>
<path fill="#F7F7F7" d="M157.344,71.362h-0.01c-0.93,0-1.693,0.738-1.743,1.656v0.089c0.007,0.965,0.787,1.75,1.753,1.75c0.961,0,1.741-0.785,1.745-1.753C159.085,72.148,158.3,71.362,157.344,71.362z"/>
<path fill="#F7F7F7" d="M209.813,71.365h-0.011c-0.93,0-1.692,0.737-1.742,1.655v0.089c0.007,0.966,0.786,1.75,1.753,1.75c0.961,0,1.741-0.784,1.746-1.752C211.555,72.15,210.77,71.365,209.813,71.365z"/>
<path fill="#F7F7F7" d="M229.048,77.837c-0.038-3.428-2.75-6.214-6.2-6.366h-1.583c-3.451,0.152-6.159,2.938-6.202,6.366l-0.005,13.644c0,3.416,2.686,6.251,6.113,6.446h1.767c3.432-0.195,6.115-3.03,6.115-6.446L229.048,77.837z M222.093,94.533
  c-0.018,0-0.055,0.002-0.055,0.002c-1.934-0.23-3.414-1.874-3.414-3.839l0.002-12.009c0.026-1.948,1.49-3.554,3.408-3.784h0.041c1.916,0.23,3.383,1.836,3.408,3.784l0.001,12.009C225.484,92.651,224.018,94.288,222.093,94.533z"/>
<g opacity="0" data-400="opacity:0" data-800="opacity:0.4">
  <path fill="#FFFFFF" d="M37.479,2.099C43.294,2.1,46.88,8.3,40.843,16.372c-7.228,9.666-13.875,21.052-15.409,33.423
    c10.737,0.833,21.363,4.685,30.523,11.755c1.234,0.953,2.401,1.958,3.536,2.989c-0.427-0.416-0.852-0.833-1.29-1.235
    c14.371,8.65,25.07,23.137,28.45,40.71c0.713-0.065,1.425-0.132,2.135-0.224c1.638-0.21,3.103-0.305,4.393-0.305
    c10.165,0,9.449,5.895-3.46,7.558c-0.703,0.091-1.41,0.157-2.116,0.222c1.08,15.039-3.435,29.367-11.915,40.748
    c-3.119,4.188-6.609,5.93-9.529,5.93c-5.83,0-9.385-6.95-3.156-15.277c7.058-9.439,12.972-19.73,14.414-31.379
    c-10.569-0.912-21.011-4.751-30.033-11.713c-1.171-0.904-2.28-1.856-3.361-2.83c-13.873-8.567-24.245-22.596-27.73-39.592
    c-0.58,0.057-1.16,0.107-1.738,0.182c-1.64,0.211-3.104,0.306-4.396,0.306c-10.162,0-9.445-5.896,3.461-7.559
    c0.544-0.07,1.091-0.117,1.637-0.171c-1.289-15.315,3.244-29.933,11.865-41.504C30.433,3.962,34.291,2.098,37.479,2.099
     M25.426,60.208c-0.082-0.774-0.161-1.549-0.211-2.326c2.566,13.208,9.744,25.574,21.234,34.442
    c9.374,7.235,20.281,11.112,31.273,11.82c-0.055-1.423-0.185-2.867-0.386-4.331c-3.072-11.906-9.955-22.919-20.446-31.012
    c-9.507-7.339-20.592-11.217-31.743-11.842C25.196,58.036,25.289,59.119,25.426,60.208 M37.48,0.099h-0.001
    c-4.233,0-8.592,2.592-11.96,7.112c-8.799,11.811-13.163,26.271-12.387,40.917C5.424,49.162,0.959,51.78,1.176,55.153
    c0.086,1.349,1.135,4.487,8.984,4.487c1.399,0,2.935-0.105,4.565-0.312C18.523,75.424,28.68,89.562,42.819,98.35
    c1.227,1.101,2.293,1.995,3.344,2.806c8.45,6.52,18.427,10.612,28.974,11.902c-1.524,8.966-5.82,17.824-13.734,28.409
    c-3.632,4.854-4.64,10.07-2.696,13.951c1.419,2.832,4.205,4.523,7.454,4.523c3.944,0,7.897-2.392,11.133-6.735
    c8.629-11.579,13.002-25.766,12.416-40.147c0.089-0.011,0.178-0.022,0.268-0.034c7.853-1.012,12.409-3.649,12.191-7.054
    c-0.087-1.35-1.136-4.487-8.987-4.487c-1.423,0-2.987,0.108-4.647,0.321c-0.096,0.013-0.191,0.024-0.288,0.036
    C84.51,85.083,74.016,70.486,59.234,61.59l-0.207-0.125c-0.635-0.539-1.243-1.031-1.849-1.499
    c-4.311-3.328-9.014-6.021-13.987-8.033l-0.928-0.558l0.362,0.333c-4.763-1.87-9.767-3.118-14.905-3.704
    c1.62-9.391,6.452-19.373,14.724-30.435c3.484-4.657,4.441-9.408,2.625-13.033C43.679,1.758,40.842,0.099,37.48,0.099L37.48,0.099z
     M75.572,101.954c-10.153-1.075-19.756-4.927-27.901-11.213C37.469,82.867,30.36,71.7,27.525,59.151
    c10.249,1.037,19.932,4.894,28.144,11.233c9.778,7.542,16.589,17.851,19.702,29.816C75.45,100.788,75.518,101.374,75.572,101.954
    L75.572,101.954z"/>
</g>
<g>
  <g>
    <path fill="#CDF6F7" d="M46.449,92.324c12.526,9.668,27.791,13.344,42.339,11.466c14.544-1.869,15.48,5.378,0.933,7.253
      c-14.546,1.875-29.808-1.803-42.336-11.47c-13.573-10.475-21.14-25.833-22.17-41.691C27.781,71.09,34.959,83.456,46.449,92.324z"
      />
  </g>
  <g>
    <path fill="#95D2DA" d="M55.878,120.528"/>
  </g>
  <g>
    <path fill="#FFF2BD" d="M56.891,68.801c-12.525-9.669-27.789-13.344-42.335-11.467c-14.546,1.872-15.48-5.379-0.935-7.253
      c14.546-1.875,29.81,1.8,42.336,11.469c13.575,10.476,21.14,25.832,22.168,41.692C75.562,90.031,68.383,77.666,56.891,68.801z"/>
  </g>
  <g>
    <path fill="#FCD724" d="M77.298,99.502c2.401,16.667-4.946,30.661-14.294,43.163c-9.349,12.498,3.34,21.894,12.686,9.348
      c9.304-12.485,13.856-28.514,11.46-45.141c-2.719-18.862-13.802-34.453-28.946-43.568C68.193,72.478,75.208,85.025,77.298,99.502z
      "/>
  </g>
  <g>
    <path fill="#95D2DA" d="M44.611,97.12c-9.994-9.18-17.007-21.725-19.097-36.202c-2.404-16.666,5.979-32.044,15.328-44.546
      c9.349-12.498-4.374-20.511-13.72-7.966c-9.302,12.485-13.857,28.515-11.46,45.143C18.381,72.409,29.464,88.002,44.611,97.12"/>
  </g>
</g>

    </svg>