<svg class="medium-4 column slide-visual" version="1.1" xmlns="http://www.w3.org/2000/svg" xmlns:xlink="http://www.w3.org/1999/xlink" x="0px" y="0px" width="330px"
height="440px" viewBox="0 0 330 440" xml:space="preserve">
  <g>
    <g>
      <path fill="#F6F7F7" d="M275,197.681c32,0,32-50.355,0-50.355C242,147.325,242,197.681,275,197.681z"/>
    </g>
    <g>
      <path fill="#F6F7F7" d="M286.923,201.04c-12.3,1.918-21.04,0.435-32.851-2.314C245.18,195.941,236,202.71,236,212.06v42.84
        c0,5.783,4,10.744,9,12.891v-27.028c0,0,0.061-1.188,1.189-0.962c0.699,0,0.811,0.962,0.811,0.962v22.943v4.772v38.067
        c0,12.386,15.189,18.464,23.72,9.89c-2.141-2.744-3.72-6.146-3.72-9.89v-40.712c0,0,0.21,0,0.213,0
        c0.014,0,0.006-1.217,1.08-1.001c0.697,0,0.707,0.884,0.707,0.884v0.258v40.571c0,2.934,0.645,5.978,2.668,8.212
        c7.76,10.681,25.332,5.176,25.332-8.212v-31.712h-0.527c-8.924,0-16.473-6.922-16.473-15.846v-8.939v-8.207
        c0,0,0.061-1.189,1.189-0.961c0.701,0,0.811,0.961,0.811,0.961v7.933v9.214v-0.154c0,18,28,19,28,0v-45.049
        C310,199.772,296.826,199.493,286.923,201.04C274.623,202.958,296.826,199.493,286.923,201.04z"/>
    </g>
    <g>
      <path fill="#F6F7F7" d="M180,169.705c25,0,25-39.401,0-39.401C154,130.304,154,169.705,180,169.705z"/>
    </g>
    <g>
      <path fill="#F6F7F7" d="M57,170.568c21,0,21-32.616,0-32.616S36,170.568,57,170.568z"/>
    </g>
    <g>
      <path fill="#F6F7F7" d="M209.086,298.076c-14.201,2.215-24.437,0.501-38.074-2.671C160.745,292.181,150,300.009,150,310.798
        v49.463c0,6.677,4,12.406,10,14.884v-31.207c0,0-0.087-1.372,1.218-1.11c0.809,0,0.782,1.11,0.782,1.11v26.489v5.509v43.954
        c0,14.302,17.989,21.317,27.841,11.418c-2.471-3.165-3.841-7.095-3.841-11.418v-47.057c0,0,0.057,0,0.064,0
        c0.014,0,0.438-1.379,1.679-1.13c0.811,0,1.257,1.045,1.257,1.045v0.297v46.845c0,3.387,0.582,6.901,2.918,9.481
        C200.879,441.704,221,435.35,221,419.89v-36.057h-1.157c-10.304,0-18.843-8.549-18.843-18.852v-10.323v-9.476
        c0,0,0.417-1.372,1.722-1.109c0.806,0,1.278,1.109,1.278,1.109v9.16v10.639v-0.148c0,21,32,22,32,0V312.79
        C236,296.61,220.518,296.29,209.086,298.076C194.885,300.291,220.518,296.29,209.086,298.076z"/>
    </g>
    <g>
      <path fill="#F6F7F7" d="M116,202.338c31,0,31-47.022,0-47.022C86,155.316,86,202.338,116,202.338z"/>
    </g>
    <g>
      <path fill="#F6F7F7" d="M94.8,267.565c-0.507-3.23-1.8-6.211-4.8-8.059v0.014c-1-0.422-1-0.775-2-1.088v-0.014
        c-2-1.08-5.201-1.511-7.859-1.607c0,0.004,0.002,0.008,0.002,0.01c-7.376-0.279-14.608,1.7-22.016,1.469
        c-7.028-0.221-13.792-1.642-20.62-3.23C28.387,252.202,19,259.146,19,268.734v43.94c0,5.932,3,11.021,8,13.222v-27.722
        c0,0,0.535-1.22,1.694-0.987c0.719,0,1.306,0.987,1.306,0.987v23.531v4.896v39.046c0,12.704,15.822,18.937,24.573,10.142
        C52.376,372.976,51,369.487,51,365.647v-41.814c0,0-0.303,0-0.299,0c0.013,0,0.237-1.221,1.34-0.998
        c0.719,0,0.959,0.935,0.959,0.935v0.264v41.614c0,3.01,0.803,6.131,2.877,8.423C63.839,385.025,82,379.378,82,365.647v-31.814
        h-1.291c-9.153,0-16.709-7.812-16.709-16.965v-9.17v-8.418c0,0,0.037-1.219,1.194-0.985c0.719,0,0.806,0.985,0.806,0.985v8.137
        v9.451v-0.035c0,18,29,19,29,0v-2.656v-43.673C95,269.518,94.955,268.538,94.8,267.565
        C94.722,267.063,94.834,267.778,94.8,267.565z"/>
    </g>
    <g>
      <path fill="#F6F7F7" d="M80.121,241.585c4.318-8.017,4.56-18.866-0.004-26.854c0,0,0,0,0,0.001
        c-0.187-0.347-0.387-0.683-0.588-1.021l0,0c-4.113-8.226-14.375-11.871-23.008-11.311c-7.932,0.514-15.153,4.556-19.238,11.437
        c-5.83,9.818-5.022,23.615,2.596,32.279c4.695,5.34,11.541,7.871,18.561,7.871c8.995,0,17.265-4.29,21.625-12.289l0,0
        C80.084,241.66,80.1,241.622,80.121,241.585C80.57,240.749,80.1,241.622,80.121,241.585z"/>
    </g>
    <g>
      <path fill="#F6F7F7" d="M127.513,205.474c-11.484,1.791-19.595,0.406-30.623-2.161c-6.907-2.163-14.203,1.847-16.213,8.817
        C86.888,221.762,87,235.75,80,245.015v10.078c3,0.107,7,0.604,8,1.416v-13.942c0,0,0.121-1.11,1.177-0.898
        c0.654,0,0.823,0.898,0.823,0.898v14.896c5,3.006,7,8.321,7,13.042v44.774c5,2.605,11.008,2.369,15.404-2.049
        c-1.999-2.563-3.404-5.74-3.404-9.234v-38.289c0-0.481,0.596-0.91,1.147-0.799c0.652,0,0.853,0.961,0.853,0.961v0.24v37.887
        c0,2.738,0.53,5.58,2.419,7.667c7.248,9.974,23.581,4.833,23.581-7.667v-29.162h-0.505c-8.333,0-15.495-6.914-15.495-15.247v-8.35
        v-7.663c0,0,0.123-1.11,1.177-0.897c0.656,0,0.823,0.897,0.823,0.897v7.408v8.604v1.247c0,15,26,17,26,0v-43.458
        C149,204.29,136.76,204.03,127.513,205.474C116.029,207.265,136.76,204.03,127.513,205.474z"/>
    </g>
    <g>
      <path fill="#F6F7F7" d="M34.863,214.457c0.693-1.354,1.137-2.638,2.137-3.841v-12.144c0,0,0.391-0.77,1.123-0.624
        c0.454,0,0.877,0.624,0.877,0.624v10.436c5-6.177,13-8.717,21-8.21v-1.526c0,0,0.392-0.77,1.124-0.623
        c0.45,0,0.876,0.623,0.876,0.623v1.632c7,0.792,13.808,4.417,18.046,10.444c0.021-0.274-0.046-0.55-0.046-0.839v-29.41
        c0-6.71-5.537-8.907-11.418-8.637c-3.897,0.179-7.668,1.027-11.595,0.932c-4.537-0.111-8.899-1.022-13.305-2.048
        C37.925,169.44,32,173.827,32,179.882v27.747C32,210.356,32.959,212.792,34.863,214.457
        C35.557,213.104,32.959,212.792,34.863,214.457z"/>
    </g>
    <g>
      <path fill="#F6F7F7" d="M197.619,236.196c-8.25-0.686-16.773,1.634-22.699,7.623c-5.615,5.676-8.33,13.746-8.251,21.646l0,0
        c0.069,6.993,2.319,14.068,6.858,19.455c5.033,5.972,12.442,9.025,20.166,9.261c11.041,0.337,21.217-4.977,26.089-15.08
        c4.011-8.319,4.147-18.496,0.441-26.947C216.175,242.927,207.628,237.028,197.619,236.196L197.619,236.196z"/>
    </g>
    <g>
      <path fill="#F6F7F7" d="M151,219.573c1,2.217,3,3.995,5,4.989v-21.148c0,0,0.264-0.93,1.147-0.752
        c0.549,0,0.853,0.752,0.853,0.752v17.952v3.733v29.789c0,4.893,3.062,8.521,6.972,10.057c0.041-8.365,3.028-16.691,9.028-22.606
        v-19.505c0,0-0.02,0-0.016,0c0.009,0,0.311-0.852,1.152-0.684c0.549,0,0.863,0.79,0.863,0.79v0.202v17.683
        c6-5.088,14-6.989,22-6.371v-3.621h-1.122c-6.981,0-12.878-6.175-12.878-13.157v-6.996v-6.422c0,0,0.264-0.93,1.148-0.752
        c0.549,0,0.852,0.752,0.852,0.752v6.208v7.21v0.157c0,13.909,22,14.641,22,0v-35.528c0-3.493-1.315-6.869-4.439-8.698
        c-2.812-1.646-6.32-1.882-9.504-1.735c-4.603,0.211-9.098,1.217-13.736,1.132c-5.584-0.102-10.871-1.219-16.292-2.48
        c-6.956-2.181-14.028,3.118-14.028,10.433v29.687c1,2.152,1,4.512,1,6.732V219.573z"/>
    </g>

  <path fill="#F5F6F7" class="fader" opacity="0" d="M81,103.996v-8.265c1,0.014,1.09,0.061,1.51,0.183c0.061,0.018,0.248,0.033,0.311,0.046
    c0.004,0.001,0.58,0.197,0.962,0.77c0.766,1.148,2.349,1.46,3.498,0.693c1.149-0.766,1.475-2.318,0.709-3.467
    c-1.379-2.068-3.563-2.708-4.139-2.857C82.99,90.853,82,90.735,81,90.722v-0.683c0-0.552-0.448-1-1-1s-1,0.448-1,1v0.854
    c-1,0.196-1.741,0.546-2.626,1.064c-2.037,1.189-3.579,3.095-4.114,5.365C71.147,102.034,75,107.032,79,108.59v8.264
    c0-0.014-0.59-0.061-1.01-0.182c-0.062-0.018,0.072-0.02,0.076-0.02c-0.005,0,0.049-0.001,0.009-0.007
    c-0.023-0.007-0.538-0.17-0.949-0.789c-0.765-1.149-2.303-1.46-3.451-0.694c-1.149,0.766-1.453,2.317-0.687,3.466
    c1.378,2.07,3.076,2.709,3.65,2.859c0.861,0.245,2.362,0.363,2.362,0.377v0.683c0,0.552,0.448,1,1,1s1-0.448,1-1v-0.867
    c2-0.196,2.243-0.536,3.128-1.053c2.036-1.19,3.327-3.095,3.862-5.364C89.103,110.551,86,105.554,81,103.996z M77.25,98.471
    c0.28-1.185,0.924-1.848,1.52-2.196C78.881,96.209,79,96.172,79,96.118v6.942C78,101.96,76.856,100.14,77.25,98.471z
     M83.249,114.116c-0.279,1.184-1.173,1.847-1.769,2.195c-0.111,0.065,0.52,0.103-0.48,0.157v-6.941
    C83,110.625,83.644,112.445,83.249,114.116z"/>
  <path fill="#F5F6F7" class="fader" opacity="0" d="M126,123.054v-8.265c1,0.014,1.057,0.061,1.478,0.183c0.061,0.018,0.231,0.033,0.294,0.046
    c0.004,0.001,0.572,0.197,0.954,0.77c0.766,1.148,2.345,1.46,3.494,0.693c1.149-0.766,1.473-2.318,0.707-3.467
    c-1.379-2.068-3.531-2.708-4.107-2.857c-0.861-0.246-1.819-0.363-2.819-0.377v-0.682c0-0.552-0.448-1-1-1s-1,0.448-1,1v0.854
    c-1,0.196-1.773,0.546-2.659,1.064c-2.036,1.189-3.562,3.095-4.098,5.365c-1.112,4.711,2.757,9.709,6.757,11.268v8.264
    c0-0.014-0.622-0.061-1.043-0.182c-0.062-0.018,0.055-0.02,0.06-0.02c-0.005,0,0.042-0.001,0.001-0.007
    c-0.023-0.007-0.542-0.17-0.954-0.789c-0.765-1.149-2.304-1.461-3.453-0.695c-1.149,0.766-1.454,2.317-0.688,3.466
    c1.378,2.07,3.108,2.709,3.682,2.859c0.861,0.245,2.395,0.363,2.395,0.377v0.683c0,0.552,0.448,1,1,1s1-0.448,1-1v-0.867
    c1-0.196,2.21-0.536,3.096-1.053c2.036-1.19,3.343-3.095,3.878-5.364C134.087,129.609,131,124.612,126,123.054z M122.218,117.529
    c0.28-1.185,0.94-1.848,1.537-2.196c0.111-0.065,0.246-0.103,0.246-0.156v6.942C123,121.019,121.824,119.198,122.218,117.529z
     M128.217,133.174c-0.279,1.184-1.157,1.847-1.752,2.195c-0.111,0.065,0.536,0.103-0.464,0.157v-6.941
    C128,129.683,128.61,131.503,128.217,133.174z"/>
  <path fill="#F5F6F7" class="fader" opacity="0" d="M166,66.702v-8.265c0.418,0.014,0.84,0.062,1.26,0.183c0.062,0.018,0.123,0.033,0.186,0.046
    c0.005,0.001,0.519,0.198,0.9,0.771c0.767,1.149,2.316,1.458,3.468,0.692c1.148-0.766,1.458-2.318,0.692-3.467
    c-1.38-2.068-3.322-2.707-3.897-2.857c-0.861-0.245-1.738-0.363-2.608-0.377v-0.683c0-0.552-0.447-1-1-1c-0.552,0-1,0.448-1,1V53.6
    c-1,0.195-1.99,0.546-2.876,1.063c-2.037,1.189-3.454,3.095-3.99,5.365C156.022,64.74,159,69.738,164,71.296v8.264
    c0-0.014-0.84-0.061-1.26-0.182c-0.062-0.018-0.054-0.02-0.049-0.02c-0.005,0-0.013-0.001-0.054-0.007
    c-0.023-0.007-0.569-0.17-0.98-0.789c-0.765-1.148-2.318-1.46-3.466-0.694c-1.149,0.766-1.46,2.317-0.695,3.466
    c1.378,2.07,3.322,2.709,3.896,2.859c0.861,0.245,1.608,0.363,2.608,0.377v0.683c0,0.552,0.448,1,1,1c0.553,0,1-0.448,1-1v-0.867
    c1.015-0.196,1.992-0.536,2.878-1.053c2.036-1.189,3.452-3.095,3.988-5.364C173.978,73.257,170.908,68.259,166,66.702z
     M162.001,61.177c0.279-1.185,1.048-1.848,1.645-2.196c0.111-0.065,0.354-0.103,0.354-0.157v6.942
    C162,64.667,161.606,62.846,162.001,61.177z M167.999,76.821c-0.279,1.184-1.048,1.848-1.644,2.196
    c-0.111,0.065-0.237,0.103-0.355,0.156v-6.942C167.527,73.331,168.394,75.151,167.999,76.821z"/>

  <path fill="#F5F6F7" class="fader" opacity="0" d="M286,120.25v-8.265c0,0.014,0.752,0.061,1.172,0.183c0.062,0.018,0.08,0.033,0.143,0.046
    c0.004,0.001,0.496,0.198,0.878,0.771c0.768,1.148,2.307,1.459,3.457,0.692c1.148-0.766,1.453-2.318,0.688-3.467
    c-1.38-2.068-3.238-2.707-3.813-2.857c-0.86-0.245-1.523-0.363-2.523-0.377v-0.683c0-0.552-0.447-1-1-1s-1,0.448-1,1v0.854
    c-1,0.195-2.077,0.546-2.963,1.063c-2.037,1.189-3.41,3.095-3.947,5.366c-1.111,4.712,1.91,9.709,6.91,11.268v8.264
    c-1-0.014-0.927-0.061-1.347-0.183c-0.062-0.018-0.167-0.033-0.228-0.046c-0.006-0.001-0.541-0.197-0.923-0.77
    c-0.766-1.15-2.327-1.458-3.478-0.694c-1.148,0.766-1.464,2.318-0.698,3.467c1.379,2.07,3.406,2.709,3.98,2.858
    c0.861,0.245,1.692,0.363,2.692,0.377v0.683c0,0.552,0.447,1,1,1s1-0.448,1-1v-0.867c1-0.196,1.904-0.536,2.789-1.052
    c2.037-1.19,3.496-3.095,4.033-5.365C293.934,126.806,291,121.808,286,120.25z M281.912,114.725c0.28-1.185,1.094-1.849,1.689-2.197
    c0.111-0.065,0.398-0.103,0.398-0.156v6.941C282,118.214,281.519,116.394,281.912,114.725z M287.911,130.369
    c-0.279,1.184-1.005,1.848-1.601,2.196c-0.111,0.065-0.311,0.103-0.311,0.156v-6.941C287,126.879,288.306,128.699,287.911,130.369z"
    />
  <path fill="#F5F6F7" class="fader" opacity="0" d="M209,107.163v-8.266c1,0.014,0.99,0.061,1.409,0.183c0.062,0.018,0.198,0.033,0.261,0.046
    c0.005,0.001,0.557,0.198,0.938,0.771c0.768,1.148,2.337,1.458,3.487,0.692c1.148-0.766,1.467-2.318,0.701-3.467
    c-1.38-2.068-3.468-2.707-4.043-2.857c-0.86-0.245-1.753-0.363-2.753-0.377v-0.683c0-0.552-0.447-1-1-1s-1,0.448-1,1v0.854
    c-1,0.195-1.84,0.546-2.726,1.063c-2.037,1.189-3.529,3.095-4.066,5.366c-1.111,4.712,1.792,9.709,6.792,11.268v8.265
    c0-0.014-0.689-0.062-1.109-0.183c-0.062-0.018-0.048-0.033-0.109-0.046c-0.005-0.001-0.48-0.197-0.863-0.77
    c-0.766-1.149-2.297-1.458-3.447-0.694c-1.148,0.766-1.45,2.318-0.685,3.467c1.379,2.07,3.177,2.709,3.751,2.858
    c0.861,0.245,1.463,0.363,2.463,0.377v0.683c0,0.552,0.447,1,1,1s1-0.448,1-1v-0.867c1-0.196,2.142-0.536,3.026-1.052
    c2.037-1.19,3.378-3.095,3.914-5.365C217.052,113.719,214,108.721,209,107.163z M205.149,101.638
    c0.28-1.185,0.975-1.849,1.571-2.197c0.111-0.064,0.279-0.103,0.279-0.156v6.941C206,105.127,204.756,103.307,205.149,101.638z
     M211.148,117.282c-0.279,1.184-1.123,1.848-1.719,2.196c-0.111,0.065-0.43,0.103-0.43,0.156v-6.941
    C211,113.792,211.543,115.612,211.148,117.282z"/>
  <path fill="#F5F6F7" class="fader" opacity="0" d="M164,114.184v-8.265c0,0.014,0.714,0.062,1.134,0.183c0.061,0.018,0.061,0.033,0.124,0.046
    c0.004,0.001,0.487,0.198,0.869,0.771c0.767,1.149,2.301,1.458,3.452,0.692c1.148-0.766,1.45-2.318,0.685-3.467
    c-1.38-2.068-3.201-2.708-3.777-2.857c-0.86-0.245-1.486-0.363-2.486-0.376v-0.683c0-0.552-0.448-1-1-1s-1,0.448-1,1v0.854
    c-1,0.196-2.115,0.546-3.001,1.063c-2.037,1.189-3.392,3.095-3.928,5.366c-1.111,4.711,1.929,9.709,6.929,11.268v8.264
    c-1-0.014-0.964-0.061-1.385-0.182c-0.061-0.018-0.185-0.033-0.246-0.046c-0.005-0.001-0.55-0.197-0.931-0.77
    c-0.766-1.149-2.334-1.46-3.482-0.694c-1.149,0.766-1.468,2.318-0.702,3.467c1.379,2.069,3.442,2.708,4.017,2.858
    c0.861,0.246,1.729,0.364,2.729,0.377v0.683c0,0.552,0.448,1,1,1s1-0.448,1-1v-0.867c1-0.196,1.867-0.536,2.752-1.052
    c2.037-1.19,3.515-3.095,4.051-5.365C171.915,120.739,169,115.742,164,114.184z M159.875,108.659
    c0.28-1.185,1.111-1.849,1.708-2.197c0.111-0.065,0.417-0.103,0.417-0.157v6.942C160,112.148,159.481,110.328,159.875,108.659z
     M165.874,124.303c-0.279,1.184-0.986,1.848-1.582,2.196c-0.11,0.065-0.292,0.103-0.292,0.156v-6.941
    C165,120.813,166.268,122.633,165.874,124.303z"/>
  <path fill="#F5F6F7" class="fader" opacity="0" d="M61,114.183v-8.265c1,0.014,0.917,0.061,1.337,0.183c0.061,0.018,0.162,0.033,0.225,0.046
    c0.004,0.001,0.538,0.198,0.92,0.771c0.766,1.149,2.327,1.459,3.477,0.692c1.149-0.766,1.463-2.318,0.697-3.467
    c-1.379-2.068-3.397-2.707-3.973-2.857c-0.861-0.246-1.683-0.363-2.683-0.377v-0.683c0-0.552-0.448-1-1-1s-1,0.448-1,1v0.854
    c-1,0.196-1.913,0.546-2.798,1.063c-2.037,1.189-3.493,3.095-4.029,5.366C51.062,112.222,54,117.22,59,118.778v8.264
    c0-0.014-0.762-0.061-1.182-0.182c-0.061-0.018-0.083-0.033-0.145-0.046c-0.005-0.001-0.499-0.197-0.88-0.77
    c-0.766-1.15-2.309-1.46-3.457-0.694c-1.149,0.766-1.455,2.318-0.689,3.467c1.379,2.069,3.247,2.709,3.821,2.858
    c0.861,0.245,1.533,0.363,2.533,0.377v0.683c0,0.552,0.448,1,1,1s1-0.448,1-1v-0.867c1-0.196,2.07-0.536,2.955-1.052
    c2.037-1.19,3.414-3.095,3.949-5.365C69.016,120.739,66,115.741,61,114.183z M57.078,108.659c0.28-1.185,1.01-1.849,1.606-2.197
    c0.111-0.065,0.316-0.103,0.316-0.156v6.942C58,112.148,56.684,110.328,57.078,108.659z M63.077,124.303
    c-0.279,1.184-1.087,1.848-1.683,2.196c-0.111,0.065-0.394,0.103-0.394,0.156v-6.941C63,120.813,63.471,122.633,63.077,124.303z"/>
  <path fill="#F5F6F7" class="fader" opacity="0" d="M248,133.336v-8.265c0,0.014,0.616,0.061,1.036,0.183c0.062,0.018,0.012,0.033,0.074,0.046
    c0.005,0.001,0.463,0.198,0.845,0.771c0.767,1.148,2.289,1.458,3.439,0.692c1.148-0.766,1.444-2.318,0.679-3.467
    c-1.38-2.068-3.106-2.708-3.682-2.857c-0.86-0.245-2.392-0.363-2.392-0.377v-0.683c0-0.552-0.447-1-1-1s-1,0.448-1,1v0.854
    c-1,0.195-2.213,0.546-3.099,1.063c-2.037,1.189-3.343,3.095-3.88,5.366c-1.111,4.711,1.979,9.709,6.979,11.268v8.265
    c-1-0.014-1.062-0.061-1.482-0.183c-0.062-0.018-0.234-0.033-0.296-0.046c-0.005-0.001-0.574-0.197-0.956-0.77
    c-0.765-1.149-2.344-1.458-3.494-0.694c-1.148,0.766-1.474,2.318-0.708,3.467c1.379,2.069,3.537,2.708,4.112,2.858
    c0.861,0.245,1.824,0.363,2.824,0.377v0.683c0,0.552,0.447,1,1,1s1-0.448,1-1v-0.867c1-0.196,1.769-0.535,2.653-1.052
    c2.037-1.19,3.564-3.095,4.101-5.365C255.865,139.892,252,134.895,248,133.336z M243.776,127.812
    c0.28-1.185,1.161-1.849,1.758-2.197c0.111-0.065-0.534-0.103,0.466-0.156v6.942C244,131.301,243.383,129.48,243.776,127.812z
     M249.775,143.456c-0.279,1.184-0.937,1.848-1.532,2.196c-0.111,0.065-0.243,0.103-0.243,0.156v-6.941
    C249,139.965,250.17,141.786,249.775,143.456z"/>

  </g>
</svg>