<svg version="1.1" class="medium-6 column slide-visual"  xmlns="http://www.w3.org/2000/svg" xmlns:xlink="http://www.w3.org/1999/xlink" x="0px" y="0px" width="500px" height="420px" viewBox="0 0 500 420" xml:space="preserve">
  <g>
    <g>
      <path fill="#F6F7F7" d="M346.646,74.086c13.412,0,13.412-20.793,0-20.793C333.235,53.292,333.235,74.086,346.646,74.086z"/>
    </g>
    <g>
      <path fill="#F6F7F7" d="M356.841,74.229c-0.602,0-1.167,0.118-1.716,0.289c-4.876,1.134-8.527,1.745-13.607,0.956
        c-4.087-0.639-9.633-0.525-9.633,5.261v18.751c0,7.726,11.587,7.338,11.587,0v-0.085v-7.08c0,0,0.08-0.397,0.369-0.397
        c0.466-0.093,0.521,0.397,0.521,0.397v7.08c0,3.687-2.998,6.685-6.685,6.685h-0.39v12.955c0,5.528,7.266,7.801,10.473,3.39l0,0
        c0.837-0.92,1.113-2.178,1.113-3.39v-16.754v-0.106c0,0,0.078-0.397,0.367-0.397c0.445-0.088,0.514,0.34,0.521,0.382l0,0
        l0.006,16.875c0,1.546-0.551,2.95-1.437,4.084c3.523,3.541,9.901,1.031,9.901-4.084V85.876"/>
    </g>
  </g>
  <g>
    <g>
      <path fill="#F6F7F7" d="M195.425,224.673c13.412,0,13.412-20.794,0-20.794C182.015,203.879,182.015,224.673,195.425,224.673z"/>
    </g>
    <g>
      <path fill="#F6F7F7" d="M205.62,224.815c-0.601,0-1.167,0.119-1.715,0.29c-4.876,1.134-8.528,1.745-13.608,0.955
        c-4.087-0.639-9.632-0.525-9.632,5.262v18.751c0,7.726,11.586,7.339,11.586,0v-0.085v-3.806v-3.274c0,0,0.081-0.397,0.37-0.397
        c0.465-0.093,0.521,0.397,0.521,0.397v3.388v3.692c0,3.687-2.998,6.685-6.685,6.685h-0.39v12.954
        c0,5.527,7.266,7.802,10.472,3.39l0,0c0.837-0.92,1.114-2.178,1.114-3.39v-16.755v-0.105c0,0,0.078-0.397,0.367-0.397
        c0.445-0.088,0.513,0.34,0.521,0.383l0,0l0.005,16.875c0,1.547-0.551,2.95-1.436,4.084c3.523,3.541,9.901,1.031,9.901-4.084
        v-15.721v-1.97v-9.474c0,0,0.078-0.397,0.367-0.397c0.465-0.095,0.525,0.397,0.525,0.397v11.161
        c2.062-0.888,3.508-2.935,3.508-5.323v-17.69C211.412,227.411,208.819,224.815,205.62,224.815z"/>
    </g>
  </g>
  <g>
    <path fill="#FFFFFF" d="M162.729,385.303c1.6,1.464,2.4,3.5,2.4,6.107c0,2.609-0.78,4.673-2.34,6.193
      c-1.561,1.52-3.94,2.279-7.141,2.279h-5.735v-16.775h5.928C158.832,383.107,161.129,383.839,162.729,385.303z M159.98,395.275
      c0.92-0.865,1.38-2.121,1.38-3.769s-0.46-2.916-1.38-3.804c-0.92-0.889-2.332-1.332-4.235-1.332h-2.089v10.199h2.376
      C157.744,396.57,159.061,396.139,159.98,395.275z"/>
    <path fill="#FFFFFF" d="M174.801,390.139c-1.072,0-1.872,0.381-2.4,1.141c-0.527,0.76-0.792,1.764-0.792,3.012v5.592h-3.6v-12.912
      h3.6v1.704c0.464-0.528,1.044-0.976,1.74-1.344s1.404-0.56,2.124-0.576l0.024,3.384H174.801z"/>
    <path fill="#FFFFFF" d="M178.173,385.326c-0.408-0.407-0.612-0.907-0.612-1.5c0-0.592,0.204-1.092,0.612-1.5
      c0.408-0.407,0.908-0.611,1.5-0.611s1.092,0.204,1.5,0.611c0.408,0.408,0.612,0.908,0.612,1.5c0,0.593-0.204,1.093-0.612,1.5
      c-0.408,0.408-0.908,0.613-1.5,0.613S178.581,385.734,178.173,385.326z M181.473,399.883h-3.6v-12.912h3.6V399.883z"/>
    <path fill="#FFFFFF" d="M188.36,399.883l-5.111-12.936h3.744l3.216,8.136l3.216-8.136h3.744l-5.112,12.936H188.36z"/>
    <path fill="#FFFFFF" d="M210.129,398.011c-1.456,1.376-3.164,2.063-5.124,2.063s-3.58-0.604-4.859-1.812
      c-1.28-1.208-1.92-2.827-1.92-4.86c0-2.031,0.651-3.647,1.956-4.848c1.304-1.199,2.844-1.8,4.619-1.8
      c1.776,0,3.284,0.536,4.524,1.608s1.86,2.543,1.86,4.416v1.92h-9.408c0.111,0.703,0.479,1.279,1.104,1.728
      s1.328,0.672,2.112,0.672c1.264,0,2.304-0.423,3.12-1.272L210.129,398.011z M206.673,390.355c-0.496-0.416-1.1-0.625-1.812-0.625
      s-1.364,0.217-1.956,0.648s-0.937,1.016-1.032,1.752h5.664C207.457,391.363,207.169,390.771,206.673,390.355z"/>
    <path fill="#FFFFFF" d="M230.266,398.443c-1.345,1.088-2.9,1.631-4.668,1.631c-1.769,0-3.221-0.451-4.356-1.355
      c-1.137-0.904-1.704-2.14-1.704-3.708c0-1.76,1.176-3.319,3.528-4.68c-0.528-0.64-0.912-1.204-1.152-1.692s-0.36-1.06-0.36-1.716
      c0-1.36,0.492-2.399,1.477-3.12c0.983-0.72,2.147-1.08,3.492-1.08c1.344,0,2.491,0.348,3.443,1.044s1.429,1.668,1.429,2.916
      c0,1.568-1.145,3.024-3.433,4.368c0.896,1.12,1.568,1.928,2.017,2.424c0.399-0.735,0.703-1.512,0.912-2.328l2.808,2.016
      c-0.368,1.009-0.816,1.945-1.344,2.809l2.376,2.352l-2.376,2.256L230.266,398.443z M223.81,396.523
      c0.464,0.367,1.063,0.551,1.8,0.551c0.735,0,1.527-0.352,2.376-1.055c-1.168-1.232-2.177-2.353-3.024-3.361
      c-1.232,0.769-1.848,1.593-1.848,2.473C223.113,395.691,223.345,396.154,223.81,396.523z M226.521,385.555
      c-0.353,0-0.669,0.124-0.948,0.372c-0.28,0.249-0.42,0.585-0.42,1.008c0,0.425,0.319,1.036,0.96,1.837
      c1.2-0.641,1.8-1.24,1.8-1.801c0-0.464-0.144-0.816-0.432-1.056C227.193,385.675,226.873,385.555,226.521,385.555z"/>
    <path fill="#FFFFFF" d="M258.633,389.322l-4.536,9.168h-2.231l-4.513-9.168v10.561h-3.743v-16.775h5.063l4.32,9.215l4.344-9.215
      h5.04v16.775h-3.744V389.322z"/>
    <path fill="#FFFFFF" d="M279.057,393.427c0,1.872-0.648,3.448-1.943,4.728c-1.297,1.281-2.925,1.92-4.885,1.92
      s-3.588-0.639-4.884-1.92c-1.296-1.279-1.944-2.855-1.944-4.728s0.648-3.452,1.944-4.739c1.296-1.289,2.924-1.933,4.884-1.933
      s3.588,0.644,4.885,1.933C278.408,389.975,279.057,391.555,279.057,393.427z M269.025,393.427c0,1.056,0.299,1.917,0.899,2.58
      c0.601,0.664,1.368,0.996,2.304,0.996c0.937,0,1.705-0.332,2.305-0.996c0.6-0.663,0.9-1.524,0.9-2.58s-0.301-1.92-0.9-2.592
      c-0.6-0.673-1.368-1.009-2.305-1.009c-0.936,0-1.703,0.336-2.304,1.009C269.324,391.507,269.025,392.371,269.025,393.427z"/>
    <path fill="#FFFFFF" d="M285.777,389.562v5.784c0,0.496,0.127,0.884,0.383,1.164s0.561,0.42,0.912,0.42
      c0.672,0,1.24-0.304,1.705-0.911l1.344,2.52c-1.121,1.023-2.301,1.535-3.54,1.535c-1.24,0-2.288-0.407-3.144-1.224
      c-0.857-0.815-1.285-1.928-1.285-3.336v-5.952h-1.512v-2.592h1.512v-3.863h3.625v3.863h3.119v2.592H285.777z"/>
    <path fill="#FFFFFF" d="M292.34,385.326c-0.407-0.407-0.611-0.907-0.611-1.5c0-0.592,0.204-1.092,0.611-1.5
      c0.408-0.407,0.908-0.611,1.5-0.611s1.093,0.204,1.5,0.611c0.408,0.408,0.613,0.908,0.613,1.5c0,0.593-0.205,1.093-0.613,1.5
      c-0.407,0.408-0.908,0.613-1.5,0.613S292.748,385.734,292.34,385.326z M295.641,399.883h-3.6v-12.912h3.6V399.883z"/>
    <path fill="#FFFFFF" d="M302.528,399.883l-5.112-12.936h3.744l3.217,8.136l3.215-8.136h3.744l-5.111,12.936H302.528z"/>
    <path fill="#FFFFFF" d="M323.912,399.883h-3.384v-1.561c-0.929,1.168-2.076,1.752-3.444,1.752c-1.367,0-2.516-0.396-3.443-1.188
      c-0.929-0.792-1.393-1.848-1.393-3.168s0.48-2.308,1.44-2.964c0.96-0.655,2.271-0.983,3.936-0.983h2.688v-0.072
      c0-1.377-0.729-2.064-2.184-2.064c-0.625,0-1.285,0.124-1.98,0.372c-0.696,0.248-1.284,0.556-1.764,0.924l-1.608-2.327
      c1.696-1.232,3.632-1.849,5.808-1.849c1.568,0,2.848,0.392,3.84,1.176s1.488,2.024,1.488,3.72V399.883z M320.288,394.963v-0.624
      h-2.256c-1.44,0-2.16,0.448-2.16,1.344c0,0.464,0.172,0.82,0.517,1.068c0.344,0.248,0.836,0.372,1.476,0.372
      s1.204-0.195,1.692-0.588C320.044,396.143,320.288,395.619,320.288,394.963z"/>
    <path fill="#FFFFFF" d="M331.353,389.562v5.784c0,0.496,0.128,0.884,0.384,1.164s0.561,0.42,0.912,0.42
      c0.672,0,1.24-0.304,1.704-0.911l1.345,2.52c-1.121,1.023-2.301,1.535-3.541,1.535s-2.288-0.407-3.144-1.224
      c-0.856-0.815-1.284-1.928-1.284-3.336v-5.952h-1.512v-2.592h1.512v-3.863h3.624v3.863h3.12v2.592H331.353z"/>
    <path fill="#FFFFFF" d="M337.916,385.326c-0.408-0.407-0.611-0.907-0.611-1.5c0-0.592,0.203-1.092,0.611-1.5
      c0.408-0.407,0.908-0.611,1.5-0.611s1.092,0.204,1.5,0.611c0.408,0.408,0.612,0.908,0.612,1.5c0,0.593-0.204,1.093-0.612,1.5
      c-0.408,0.408-0.908,0.613-1.5,0.613S338.324,385.734,337.916,385.326z M341.217,399.883h-3.601v-12.912h3.601V399.883z"/>
    <path fill="#FFFFFF" d="M357.536,393.427c0,1.872-0.648,3.448-1.944,4.728c-1.296,1.281-2.924,1.92-4.884,1.92
      s-3.588-0.639-4.884-1.92c-1.297-1.279-1.944-2.855-1.944-4.728s0.647-3.452,1.944-4.739c1.296-1.289,2.924-1.933,4.884-1.933
      s3.588,0.644,4.884,1.933C356.888,389.975,357.536,391.555,357.536,393.427z M347.504,393.427c0,1.056,0.3,1.917,0.9,2.58
      c0.6,0.664,1.367,0.996,2.304,0.996s1.704-0.332,2.304-0.996c0.6-0.663,0.9-1.524,0.9-2.58s-0.301-1.92-0.9-2.592
      c-0.6-0.673-1.367-1.009-2.304-1.009s-1.704,0.336-2.304,1.009C347.804,391.507,347.504,392.371,347.504,393.427z"/>
    <path fill="#FFFFFF" d="M363.799,392.683v7.2h-3.6v-12.912h3.6v1.439c1.088-1.104,2.312-1.655,3.672-1.655
      c1.36,0,2.5,0.479,3.42,1.44c0.92,0.959,1.381,2.24,1.381,3.84v7.848h-3.601v-7.296c0-1.983-0.728-2.976-2.184-2.976
      c-0.72,0-1.349,0.26-1.884,0.779C364.066,390.911,363.799,391.675,363.799,392.683z"/>
  </g>
  <g>
    <path fill="#FFFFFF" d="M47.936,346.301v-3.744h6.889l-6.889-6.336v-4.631l7.416,6.672c0.801-0.576,2.292-1.641,4.477-3.192
      c2.184-1.552,3.812-2.712,4.884-3.479v4.367l-6.624,4.92l1.872,1.68h4.752v3.744H47.936z"/>
    <path fill="#FFFFFF" d="M57.512,326.189h7.2v3.6H51.8v-3.6h1.44c-1.104-1.088-1.656-2.312-1.656-3.672
      c0-1.36,0.479-2.5,1.439-3.42c0.961-0.92,2.241-1.381,3.841-1.381h7.848v3.601h-7.296c-1.983,0-2.977,0.728-2.977,2.184
      c0,0.72,0.261,1.349,0.78,1.884C55.74,325.922,56.504,326.189,57.512,326.189z"/>
    <path fill="#FFFFFF" d="M58.256,301.541c1.872,0,3.448,0.648,4.729,1.944s1.92,2.925,1.92,4.884c0,1.961-0.64,3.588-1.92,4.885
      c-1.28,1.295-2.856,1.943-4.729,1.943s-3.452-0.648-4.74-1.943c-1.287-1.297-1.932-2.924-1.932-4.885
      c0-1.959,0.645-3.588,1.932-4.884C54.804,302.189,56.384,301.541,58.256,301.541z M58.256,311.573c1.056,0,1.916-0.3,2.58-0.899
      c0.664-0.601,0.996-1.369,0.996-2.305s-0.332-1.704-0.996-2.304c-0.664-0.601-1.524-0.9-2.58-0.9s-1.92,0.3-2.592,0.9
      c-0.672,0.6-1.008,1.368-1.008,2.304s0.336,1.704,1.008,2.305C56.336,311.273,57.2,311.573,58.256,311.573z"/>
    <path fill="#FFFFFF" d="M64.712,292.397v3.72L51.8,300.51v-3.721l7.8-2.52l-7.8-2.52v-3.48l7.8-2.52l-7.8-2.521v-3.744
      l12.912,4.392v3.744l-7.032,2.376L64.712,292.397z"/>
    <path fill="#FFFFFF" d="M64.712,273.869v3.6H46.904v-3.6H64.712z"/>
    <path fill="#FFFFFF" d="M62.84,259.277c1.376,1.457,2.064,3.164,2.064,5.124s-0.604,3.58-1.812,4.86s-2.828,1.92-4.86,1.92
      c-2.031,0-3.647-0.652-4.848-1.956s-1.8-2.845-1.8-4.62s0.536-3.283,1.608-4.523c1.071-1.24,2.544-1.86,4.416-1.86h1.92v9.407
      c0.704-0.111,1.28-0.479,1.728-1.104c0.448-0.624,0.672-1.328,0.672-2.111c0-1.264-0.424-2.305-1.271-3.121L62.84,259.277z
       M55.184,262.733c-0.416,0.496-0.624,1.101-0.624,1.812c0,0.713,0.217,1.365,0.648,1.957s1.017,0.936,1.752,1.031v-5.664
      C56.192,261.949,55.601,262.238,55.184,262.733z"/>
    <path fill="#FFFFFF" d="M64.904,250.457c0,1.529-0.648,2.893-1.944,4.092c-1.296,1.201-2.904,1.801-4.824,1.801
      s-3.492-0.584-4.716-1.752s-1.836-2.536-1.836-4.104c0-1.568,0.552-2.849,1.656-3.841h-6.336v-3.6h17.808v3.6h-1.704
      C64.272,247.662,64.904,248.93,64.904,250.457z M58.28,252.726c1.04,0,1.892-0.312,2.556-0.937
      c0.664-0.623,0.996-1.352,0.996-2.184s-0.332-1.539-0.996-2.124c-0.664-0.584-1.52-0.876-2.568-0.876
      c-1.048,0-1.92,0.292-2.615,0.876c-0.696,0.585-1.044,1.3-1.044,2.147c0,0.849,0.352,1.576,1.056,2.185
      S57.24,252.726,58.28,252.726z"/>
    <path fill="#FFFFFF" d="M62.528,230.094c1.264,1.137,1.896,2.549,1.896,4.236c0,1.688-0.572,3.112-1.716,4.271
      c-1.144,1.16-2.672,1.74-4.584,1.74s-3.48-0.596-4.704-1.787c-1.224-1.192-1.836-2.557-1.836-4.093s0.632-2.808,1.896-3.815
      h-1.703v-3.601h11.256c1.151,0,2.176,0.2,3.071,0.601c0.896,0.4,1.601,0.936,2.112,1.607c1.056,1.328,1.584,2.896,1.584,4.704
      c0,0.96-0.156,1.94-0.468,2.94c-0.312,1-0.756,1.876-1.332,2.627l-2.712-1.391c0.896-1.185,1.344-2.437,1.344-3.757
      c0-1.319-0.328-2.364-0.984-3.132S63.952,230.094,62.528,230.094z M57.979,230.598c-1.031,0-1.844,0.289-2.436,0.864
      c-0.592,0.576-0.888,1.288-0.888,2.136c0,0.849,0.296,1.58,0.888,2.196s1.4,0.925,2.424,0.925c1.024,0,1.853-0.301,2.484-0.9
      s0.948-1.332,0.948-2.196s-0.312-1.584-0.937-2.16C59.84,230.887,59.012,230.598,57.979,230.598z"/>
    <path fill="#FFFFFF" d="M62.84,212.454c1.376,1.456,2.064,3.165,2.064,5.124c0,1.961-0.604,3.58-1.812,4.86s-2.828,1.92-4.86,1.92
      c-2.031,0-3.647-0.651-4.848-1.956c-1.2-1.304-1.8-2.844-1.8-4.62s0.536-3.284,1.608-4.524c1.071-1.239,2.544-1.859,4.416-1.859
      h1.92v9.408c0.704-0.112,1.28-0.48,1.728-1.104c0.448-0.624,0.672-1.327,0.672-2.112c0-1.264-0.424-2.304-1.271-3.119
      L62.84,212.454z M55.184,215.91c-0.416,0.496-0.624,1.101-0.624,1.812s0.217,1.363,0.648,1.955
      c0.432,0.593,1.017,0.937,1.752,1.033v-5.664C56.192,215.127,55.601,215.414,55.184,215.91z"/>
    <path fill="#FFFFFF" d="M63.271,192.318c1.089,1.344,1.633,2.9,1.633,4.668c0,1.768-0.452,3.22-1.356,4.356
      c-0.903,1.136-2.14,1.704-3.708,1.704c-1.76,0-3.319-1.176-4.68-3.528c-0.64,0.528-1.204,0.912-1.692,1.152
      c-0.487,0.24-1.06,0.36-1.716,0.36c-1.359,0-2.4-0.492-3.12-1.476s-1.08-2.148-1.08-3.492c0-1.344,0.349-2.492,1.044-3.444
      c0.696-0.952,1.668-1.428,2.916-1.428c1.568,0,3.024,1.144,4.368,3.432c1.12-0.896,1.929-1.568,2.424-2.016
      c-0.735-0.4-1.512-0.704-2.328-0.912l2.017-2.808c1.008,0.368,1.943,0.816,2.808,1.344l2.353-2.376l2.256,2.376L63.271,192.318z
       M50.384,196.062c0,0.352,0.124,0.668,0.372,0.948c0.248,0.28,0.584,0.42,1.008,0.42c0.425,0,1.036-0.32,1.836-0.96
      c-0.64-1.2-1.239-1.8-1.8-1.8c-0.464,0-0.815,0.144-1.056,0.432C50.504,195.39,50.384,195.71,50.384,196.062z M61.352,198.774
      c0.368-0.464,0.553-1.064,0.553-1.8c0-0.735-0.353-1.527-1.057-2.376c-1.231,1.168-2.352,2.176-3.359,3.024
      c0.768,1.232,1.592,1.848,2.472,1.848C60.521,199.47,60.984,199.239,61.352,198.774z"/>
    <path fill="#FFFFFF" d="M47.936,166.879h3.336v8.352h3.456v-7.512h3.192v7.512h3.48v-8.615h3.312v12.359H47.936V166.879z"/>
    <path fill="#FFFFFF" d="M51.8,160.495l3.456-2.208l-3.456-2.28v-4.224l6.312,4.439l6.6-4.607v4.296l-3.552,2.52l3.552,2.448v4.152
      l-6.576-4.513l-6.336,4.272V160.495z"/>
    <path fill="#FFFFFF" d="M51.584,142.087c0-1.504,0.628-2.844,1.884-4.021c1.257-1.176,2.836-1.764,4.74-1.764
      s3.496,0.588,4.776,1.764c1.28,1.177,1.92,2.553,1.92,4.128c0,1.576-0.632,2.845-1.896,3.805h6.36v3.6H51.8v-3.6h1.44
      C52.136,144.895,51.584,143.591,51.584,142.087z M58.268,146.047c1.049,0,1.904-0.292,2.568-0.876s0.996-1.292,0.996-2.124
      s-0.332-1.561-0.996-2.185s-1.516-0.936-2.556-0.936s-1.912,0.304-2.616,0.912s-1.056,1.336-1.056,2.184
      c0,0.849,0.348,1.564,1.044,2.148C56.348,145.755,57.22,146.047,58.268,146.047z"/>
    <path fill="#FFFFFF" d="M62.84,122.432c1.376,1.456,2.064,3.164,2.064,5.124s-0.604,3.58-1.812,4.859
      c-1.208,1.28-2.828,1.92-4.86,1.92c-2.031,0-3.647-0.651-4.848-1.956c-1.2-1.304-1.8-2.844-1.8-4.619
      c0-1.776,0.536-3.284,1.608-4.524c1.071-1.24,2.544-1.86,4.416-1.86h1.92v9.408c0.704-0.111,1.28-0.479,1.728-1.104
      c0.448-0.624,0.672-1.328,0.672-2.112c0-1.264-0.424-2.304-1.271-3.12L62.84,122.432z M55.184,125.888
      c-0.416,0.496-0.624,1.1-0.624,1.812s0.217,1.364,0.648,1.956s1.017,0.937,1.752,1.032v-5.664
      C56.192,125.104,55.601,125.392,55.184,125.888z"/>
    <path fill="#FFFFFF" d="M54.968,111.991c0,1.072,0.381,1.872,1.141,2.4c0.76,0.527,1.764,0.792,3.012,0.792h5.592v3.6H51.8v-3.6
      h1.704c-0.528-0.464-0.976-1.044-1.344-1.74s-0.561-1.404-0.576-2.124l3.384-0.024V111.991z"/>
    <path fill="#FFFFFF" d="M50.156,108.619c-0.408,0.408-0.908,0.612-1.5,0.612s-1.093-0.204-1.5-0.612
      c-0.408-0.408-0.612-0.908-0.612-1.5s0.204-1.092,0.612-1.5c0.407-0.408,0.908-0.612,1.5-0.612s1.092,0.204,1.5,0.612
      c0.407,0.408,0.611,0.908,0.611,1.5S50.563,108.211,50.156,108.619z M64.712,105.319v3.6H51.8v-3.6H64.712z"/>
    <path fill="#FFFFFF" d="M62.84,90.728c1.376,1.456,2.064,3.164,2.064,5.124s-0.604,3.58-1.812,4.859
      c-1.208,1.28-2.828,1.92-4.86,1.92c-2.031,0-3.647-0.651-4.848-1.956c-1.2-1.304-1.8-2.844-1.8-4.619
      c0-1.776,0.536-3.284,1.608-4.524c1.071-1.24,2.544-1.86,4.416-1.86h1.92v9.408c0.704-0.111,1.28-0.479,1.728-1.104
      c0.448-0.624,0.672-1.328,0.672-2.112c0-1.264-0.424-2.304-1.271-3.12L62.84,90.728z M55.184,94.184
      c-0.416,0.496-0.624,1.1-0.624,1.812s0.217,1.364,0.648,1.956s1.017,0.937,1.752,1.032v-5.664
      C56.192,93.399,55.601,93.688,55.184,94.184z"/>
    <path fill="#FFFFFF" d="M57.512,83.479h7.2v3.6H51.8v-3.6h1.44c-1.104-1.088-1.656-2.312-1.656-3.672
      c0-1.36,0.479-2.5,1.439-3.421c0.961-0.919,2.241-1.38,3.841-1.38h7.848v3.601h-7.296c-1.983,0-2.977,0.729-2.977,2.184
      c0,0.72,0.261,1.349,0.78,1.884C55.74,83.212,56.504,83.479,57.512,83.479z"/>
    <path fill="#FFFFFF" d="M61.712,65.551c0-1.199-0.6-2.279-1.8-3.239l2.399-2.137c1.729,1.665,2.593,3.465,2.593,5.4
      c0,1.937-0.612,3.572-1.836,4.908c-1.225,1.336-2.824,2.004-4.801,2.004c-1.976,0-3.584-0.676-4.823-2.028
      c-1.24-1.352-1.86-2.955-1.86-4.812c0-0.928,0.192-1.868,0.576-2.82c0.384-0.951,0.952-1.788,1.704-2.508l2.447,1.872
      c-0.495,0.416-0.879,0.924-1.151,1.523c-0.272,0.601-0.408,1.196-0.408,1.788c0,0.944,0.309,1.757,0.924,2.437
      c0.616,0.68,1.473,1.02,2.568,1.02s1.948-0.34,2.556-1.02C61.408,67.26,61.712,66.463,61.712,65.551z"/>
    <path fill="#FFFFFF" d="M62.84,46.592c1.376,1.456,2.064,3.164,2.064,5.124s-0.604,3.58-1.812,4.859
      c-1.208,1.28-2.828,1.92-4.86,1.92c-2.031,0-3.647-0.651-4.848-1.956c-1.2-1.304-1.8-2.844-1.8-4.619
      c0-1.776,0.536-3.284,1.608-4.524c1.071-1.24,2.544-1.86,4.416-1.86h1.92v9.408c0.704-0.111,1.28-0.479,1.728-1.104
      c0.448-0.624,0.672-1.328,0.672-2.112c0-1.264-0.424-2.304-1.271-3.12L62.84,46.592z M55.184,50.048
      c-0.416,0.496-0.624,1.1-0.624,1.812s0.217,1.364,0.648,1.956s1.017,0.937,1.752,1.032v-5.664
      C56.192,49.264,55.601,49.552,55.184,50.048z"/>
  </g>
  <path fill="none" stroke="#F6F7F7" stroke-width="2" stroke-miterlimit="10" d="M417.82,357.952c0,0,10.359,4.678,14.4,9.934
    c0,0,0.383,0.604,0.431,1.021c0.05,0.415-0.354,1.094-0.354,1.094c-3.889,5.366-14.111,10.344-14.111,10.344"/>
  <path fill="none" stroke="#F7D515" stroke-width="2" stroke-miterlimit="10" d="M386.921,255.467c0,0,2.14-4.742,4.548-6.592
    c0,0,0.275-0.177,0.467-0.197c0.189-0.023,0.5,0.162,0.5,0.162c2.458,1.78,4.736,6.46,4.736,6.46"/>
  <line fill="none" stroke="#F6F7F7" stroke-width="2" stroke-miterlimit="10" x1="418.66" y1="369.148" x2="101" y2="369.148"/>
  <line fill="none" stroke="#F6F7F7" stroke-width="2" stroke-miterlimit="10" x1="277.064" y1="21.504" x2="277.064" y2="306.632"/>
  <path fill="none" stroke="#F6F7F7" stroke-width="2" stroke-miterlimit="10" d="M72.559,31.021c0,0,4.678-10.359,9.934-14.4
    c0,0,0.604-0.383,1.021-0.431c0.415-0.05,1.094,0.354,1.094,0.354c5.367,3.889,10.344,14.111,10.344,14.111"/>
  <line fill="none" stroke="#F6F7F7" stroke-width="2" stroke-miterlimit="10" x1="83.755" y1="30.181" x2="83.755" y2="350"/>
  <polygon fill="#9AD7DE" stroke="#F7D515" stroke-width="2" stroke-miterlimit="10" points="220.926,264.398 204.66,248.129
    220.926,231.865 212.303,223.241 196.039,239.508 179.77,223.241 171.148,231.865 187.415,248.129 171.148,264.398 179.77,273.02
    196.039,256.753 212.305,273.02  "/>
  <polyline fill="none" stroke="#F7D515" stroke-width="2" stroke-miterlimit="10" points="397.479,227.919 386.355,227.919
    386.355,240.265 374.599,240.265 374.599,252.611 362.253,252.611 362.253,264.954 350.495,264.954 350.495,277.3 337.82,277.3
    "/>
  <line fill="none" stroke="#F6F7F7" stroke-width="2" stroke-miterlimit="10" x1="419.629" y1="164.068" x2="134.5" y2="164.068"/>
  <g>
    <g>
      <path fill="#F6F7F7" d="M347.259,224.384c13.412,0,13.412-20.794,0-20.794C333.85,203.59,333.85,224.384,347.259,224.384z"/>
    </g>
    <g>
      <path fill="#F6F7F7" d="M357.454,224.526c-0.601,0-1.167,0.118-1.715,0.289c-4.877,1.135-8.528,1.746-13.608,0.956
        c-4.087-0.639-9.632-0.525-9.632,5.262v18.751c0,7.726,11.586,7.339,11.586,0v-0.086v-3.805v-3.274c0,0,0.08-0.397,0.37-0.397
        c0.465-0.093,0.521,0.397,0.521,0.397v3.388v3.691c0,3.688-2.998,6.686-6.685,6.686H337.9v12.954
        c0,5.527,7.266,7.801,10.473,3.39l0,0c0.837-0.92,1.114-2.178,1.114-3.39v-16.755v-0.105c0,0,0.078-0.397,0.367-0.397
        c0.444-0.088,0.513,0.34,0.521,0.383l0,0l0.005,3.998c0,1.547,0,5.136,0,5.136c3.581,1.821,8.465-0.659,8.465-5.136v-2.844v-1.97
        v-9.474c0,0,0.078-0.397,0.367-0.397c0.466-0.096,0.526,0.397,0.526,0.397v11.161c2.062-0.888,3.508-2.935,3.508-5.324v-17.689
        C363.246,227.122,360.653,224.526,357.454,224.526z"/>
    </g>
  </g>
  <path fill="#F7D515" d="M368.694,62.524c0.244-0.289,0.772-1.854,1.337-3.791c1.553-0.167,3.269-1.002,4.695-2.429
    c2.587-2.587,3.24-6.129,1.458-7.912c-1.244-1.244-3.347-1.298-5.383-0.339c-0.375-0.345-0.693-0.565-0.693-0.565
    s-4.119,0.645-5.451,0.645c-1.332,0-5.451-0.645-5.451-0.645s-0.262,0.179-0.591,0.47c-2.059-0.995-4.195-0.956-5.454,0.303
    c-1.782,1.782-1.129,5.325,1.459,7.912c1.404,1.405,3.089,2.233,4.621,2.418c0.581,2.003,1.129,3.638,1.379,3.933
    c0.673,0.794,2.119,1.29,2.119,1.29s1.166,1.167,0,2c-0.709,0.25-0.709,0.25-1.084,0.542c-0.75,0.208-0.835,0.446-1.209,0.885
    c-0.833,0.541-0.958,1.76-0.958,1.76h10.338c0,0-0.125-1.219-0.958-1.76c-0.374-0.439-0.459-0.63-1.209-0.838
    c-0.375-0.293-0.375-0.316-1.084-0.566c-1.166-0.833,0-2.011,0-2.011S368.021,63.317,368.694,62.524z M355.491,55.302
    c-1.889-1.89-2.365-4.475-1.064-5.776c0.77-0.769,1.988-0.902,3.246-0.504c-0.185,0.288-0.325,0.6-0.371,0.919
    c-0.1,0.696,0.669,4.037,1.507,7.108C357.704,56.902,356.5,56.311,355.491,55.302z M374.92,49.657
    c1.301,1.301,0.824,3.886-1.065,5.775c-1.03,1.03-2.263,1.623-3.386,1.753c0.853-3.108,1.646-6.539,1.544-7.244
    c-0.04-0.276-0.158-0.543-0.306-0.798C372.952,48.759,374.157,48.895,374.92,49.657z"/>
  <path fill="#F6F7F7" d="M359.167,85.318c-2.273,2.273-5.96,2.273-8.233,0l-0.252-0.251c-2.273-2.274-2.273-5.96,0-8.234
    l10.151-10.151c2.273-2.273,5.96-2.273,8.233,0l0.252,0.251c2.273,2.274,2.273,5.96,0,8.234L359.167,85.318z"/>
  <line fill="none" stroke="#F7D515" stroke-width="2" stroke-miterlimit="10" x1="392" y1="255" x2="392" y2="277"/>
  <path fill="none" stroke="#F7D515" stroke-width="2" stroke-miterlimit="10" d="M145.675,93.963c0,0-4.742-2.14-6.592-4.548
    c0,0-0.177-0.275-0.197-0.467c-0.023-0.189,0.162-0.5,0.162-0.5c1.78-2.458,6.46-4.736,6.46-4.736"/>
  <line fill="none" stroke="#F7D515" stroke-width="2" stroke-miterlimit="10" x1="145" y1="89" x2="152" y2="89"/>
  <line fill="none" stroke="#F7D515" stroke-width="2" stroke-miterlimit="10" x1="157" y1="89" x2="164" y2="89"/>
  <line fill="none" stroke="#F7D515" stroke-width="2" stroke-miterlimit="10" x1="169" y1="89" x2="176" y2="89"/>
  <path fill="none" stroke="#F7D515" stroke-width="2" stroke-miterlimit="10" d="M247.209,83.712c0,0,4.742,2.14,6.592,4.548
    c0,0,0.177,0.275,0.197,0.467c0.023,0.189-0.162,0.5-0.162,0.5c-1.78,2.458-6.46,4.736-6.46,4.736"/>
  <line fill="none" stroke="#F7D515" stroke-width="2" stroke-miterlimit="10" x1="248" y1="89" x2="241" y2="89"/>
  <line fill="none" stroke="#F7D515" stroke-width="2" stroke-miterlimit="10" x1="236" y1="89" x2="229" y2="89"/>
  <line fill="none" stroke="#F7D515" stroke-width="2" stroke-miterlimit="10" x1="224" y1="89" x2="217" y2="89"/>
  <path fill="none" stroke="#F7D515" stroke-width="2" stroke-miterlimit="10" d="M191.316,38.071c0,0,2.14-4.742,4.548-6.592
    c0,0,0.275-0.177,0.467-0.197c0.189-0.023,0.5,0.162,0.5,0.162c2.458,1.78,4.736,6.46,4.736,6.46"/>
  <line fill="none" stroke="#F7D515" stroke-width="2" stroke-miterlimit="10" x1="196" y1="37" x2="196" y2="44"/>
  <line fill="none" stroke="#F7D515" stroke-width="2" stroke-miterlimit="10" x1="196" y1="49" x2="196" y2="52"/>
  <path fill="none" stroke="#F7D515" stroke-width="2" stroke-miterlimit="10" d="M201.567,139.605c0,0-2.14,4.742-4.548,6.592
    c0,0-0.275,0.177-0.467,0.197c-0.189,0.023-0.5-0.162-0.5-0.162c-2.458-1.78-4.736-6.46-4.736-6.46"/>
  <line fill="none" stroke="#F7D515" stroke-width="2" stroke-miterlimit="10" x1="196" y1="140" x2="196" y2="133"/>
  <line fill="none" stroke="#F7D515" stroke-width="2" stroke-miterlimit="10" x1="196" y1="128" x2="196" y2="125"/>
  <g>
    <g>
      <path fill="#F6F7F7" d="M196.174,74.254c13.412,0,13.412-20.793,0-20.793C182.765,53.461,182.765,74.254,196.174,74.254z"/>
    </g>
    <g>
      <path fill="#F6F7F7" d="M206.37,74.398c-0.601,0-1.167,0.118-1.715,0.289c-4.876,1.134-8.528,1.746-13.608,0.956
        c-4.087-0.639-9.632-0.525-9.632,5.261v18.751c0,7.726,11.586,7.338,11.586,0V99.57v-3.805V92.49c0,0,0.081-0.397,0.37-0.397
        c0.465-0.093,0.521,0.397,0.521,0.397v3.388v3.692c0,3.687-2.998,6.685-6.685,6.685h-0.39v12.955
        c0,5.528,7.266,7.801,10.472,3.39l0,0c0.837-0.92,1.114-2.178,1.114-3.39v-16.754v-0.106c0,0,0.078-0.397,0.367-0.397
        c0.445-0.088,0.513,0.34,0.521,0.382l0,0l0.005,16.875c0,1.546-0.551,2.95-1.436,4.084c3.523,3.541,9.901,1.031,9.901-4.084
        v-15.721v-1.969v-9.474c0,0,0.078-0.397,0.367-0.397c0.465-0.096,0.525,0.397,0.525,0.397v11.162
        c2.062-0.888,3.508-2.935,3.508-5.324v-17.69C212.162,76.993,209.569,74.398,206.37,74.398z"/>
    </g>
  </g>
  <path fill="#F7D515" d="M349.838,47.607c-0.142-0.433-0.638-0.66-1.104-0.507c-0.468,0.153-0.731,0.628-0.59,1.061
    c0.044,0.137,0.131,0.242,0.234,0.333c-0.348,0.965-1.039,1.75-2.016,2.069c-1.606,0.526-3.705-1.398-4.624-3.263
    c0.245-0.22,0.358-0.55,0.256-0.864c-0.139-0.432-0.635-0.66-1.102-0.506c-0.47,0.153-0.733,0.628-0.592,1.062
    c0.1,0.303,0.376,0.496,0.691,0.537c0.364,2.05-0.189,4.854-1.8,5.381c-0.964,0.314-1.968,0.102-2.811-0.452
    c0.042-0.147,0.057-0.3,0.008-0.453c-0.142-0.432-0.636-0.659-1.104-0.506s-0.731,0.628-0.589,1.061
    c0.133,0.408,0.578,0.621,1.022,0.517c0.921,1.011,1.527,1.678,2.566,2.819c2.96-3.2,5.851-4.181,10.601-3.468
    c0.164-1.532,0.261-2.43,0.406-3.786C349.727,48.475,349.976,48.025,349.838,47.607z"/>
</svg>