<svg class="medium-12 column slide-visual" version="1.1" xmlns="http://www.w3.org/2000/svg" xmlns:xlink="http://www.w3.org/1999/xlink" x="0px" y="0px" width="465px" height="420px" viewBox="0 0 465 420" xml:space="preserve" data-400-center="transform: translateY(0px)" data-center-center="transform: translateY(-40px)">

  <path fill="none" stroke="#F5F6F7" stroke-width="5" stroke-linecap="round" stroke-linejoin="round" stroke-miterlimit="10" d="
    M356.149,417.139c19.316,0,34.979-15.662,34.979-34.979c0,0-110.773-187.775-116.538-207.24
    c-5.764-19.464-0.353-62.154-0.353-62.154H222.39c0,0,5.412,42.69-0.353,62.154c-5.765,19.465-116.538,207.24-116.538,207.24
    c0,19.316,15.662,34.979,34.979,34.979H356.149z"/>
  <path fill="none" stroke="#F5F6F7" stroke-linecap="round" stroke-linejoin="round" stroke-miterlimit="10" d="M179.581,254.421
    c0,0,14.264,6.356,40.922,4.345c26.658-2.013,32.189-4.666,43.757-4.345c11.568,0.322,31.824,1.917,41.747-0.024
    s12.38,2.381,12.38,2.381"/>
  <g>
    <g>
      <path fill="#F6F7F7" d="M156.514,377.066c4.701-1.977,1.637-9.266-3.064-7.29S151.812,379.043,156.514,377.066z"/>
    </g>
    <g>
      <path fill="#F6F7F7" d="M160.108,375.614c-0.21,0.09-0.392,0.214-0.559,0.354c-1.542,1.115-2.732,1.869-4.629,2.339
        c-1.527,0.378-3.454,1.236-2.602,3.264l2.762,6.572c1.14,2.709,5.144,0.867,4.062-1.706l-0.013-0.03l-0.561-1.333l-0.482-1.148
        c0,0-0.032-0.15,0.07-0.193c0.149-0.102,0.242,0.062,0.242,0.062l0.5,1.188l0.544,1.294c0.543,1.292-0.067,2.786-1.359,3.329
        l-0.137,0.058l1.908,4.54c0.815,1.938,3.698,1.664,4.171-0.354l0,0c0.157-0.447,0.07-0.929-0.109-1.353l-2.468-5.873
        l-0.015-0.038c0,0-0.031-0.151,0.07-0.192c0.143-0.097,0.23,0.042,0.239,0.057c0,0,0,0,0.001-0.001l2.486,5.916
        c0.228,0.541,0.243,1.115,0.1,1.642c1.756,0.722,3.622-1.097,2.868-2.889l-2.316-5.512l-0.291-0.69l-1.396-3.321
        c0,0-0.03-0.15,0.07-0.193c0.15-0.102,0.242,0.062,0.242,0.062l1.645,3.913c0.593-0.615,0.798-1.547,0.447-2.384l-2.607-6.201
        C162.521,375.67,161.23,375.144,160.108,375.614z"/>
    </g>
  </g>
  <g>
    <g>
      <path fill="#F6F7F7" d="M352.881,385.949c4.713,1.95,7.737-5.354,3.027-7.306C351.197,376.691,348.17,383.997,352.881,385.949z"
        />
    </g>
    <g>
      <path fill="#F6F7F7" d="M356.441,387.482c-0.211-0.086-0.427-0.129-0.644-0.148c-1.878-0.311-3.251-0.626-4.919-1.645
        c-1.343-0.818-3.309-1.586-4.15,0.446L344,392.723c-1.123,2.715,3.002,4.266,4.07,1.688l0.012-0.03l0.554-1.337l0.478-1.15
        c0,0,0.085-0.129,0.187-0.086c0.177,0.034,0.126,0.215,0.126,0.215l-0.493,1.191l-0.537,1.296
        c-0.535,1.296-2.027,1.913-3.321,1.377l-0.138-0.058l-1.886,4.551c-0.804,1.942,1.419,3.799,3.186,2.716l0,0
        c0.429-0.203,0.71-0.604,0.885-1.03l2.438-5.885l0.016-0.038c0,0,0.086-0.128,0.187-0.086c0.169,0.035,0.133,0.194,0.127,0.21
        c0.002,0.001,0.002,0.001,0.003,0l-2.456,5.929c-0.226,0.544-0.622,0.957-1.098,1.227c0.724,1.756,3.328,1.802,4.071,0.007
        l2.288-5.524l0.287-0.691l1.378-3.329c0,0,0.086-0.127,0.187-0.086c0.178,0.035,0.126,0.217,0.126,0.217l-1.624,3.92
        c0.854-0.01,1.661-0.52,2.01-1.357l2.573-6.216C358.1,389.236,357.565,387.948,356.441,387.482z"/>
    </g>
  </g>
  <g>
    <g>
      <path fill="#F6F7F7" d="M239.322,376.128c-3.079-4.065-9.382,0.707-6.305,4.772C236.097,384.966,242.401,380.192,239.322,376.128
        z"/>
    </g>
    <g>
      <path fill="#F6F7F7" d="M237.025,373.004c0.139,0.182,0.304,0.327,0.48,0.453c1.464,1.218,2.488,2.185,3.413,3.906
        c0.745,1.386,2.053,3.04,3.807,1.712l5.685-4.305c2.341-1.774-0.435-5.197-2.66-3.513l-0.025,0.021l-1.153,0.874l-0.993,0.751
        c0,0-0.139,0.067-0.204-0.021c-0.136-0.119-0.001-0.249-0.001-0.249l1.028-0.778l1.118-0.848
        c1.117-0.847,2.717-0.626,3.562,0.491l0.089,0.119l3.927-2.974c1.677-1.27,0.696-3.994-1.376-3.952l0,0
        c-0.473-0.043-0.917,0.161-1.283,0.44l-5.078,3.846l-0.033,0.024c0,0-0.14,0.067-0.204-0.021
        c-0.129-0.114-0.016-0.233-0.004-0.245c0,0,0,0-0.002-0.001l5.116-3.874c0.469-0.354,1.021-0.511,1.565-0.503
        c0.265-1.88-1.958-3.237-3.51-2.064l-4.765,3.61l-0.598,0.451l-2.872,2.176c0,0-0.139,0.066-0.204-0.021
        c-0.136-0.119,0-0.25,0-0.25l3.384-2.562c-0.742-0.422-1.696-0.391-2.42,0.158l-5.363,4.061
        C236.481,370.652,236.292,372.033,237.025,373.004z"/>
    </g>
  </g>
  <g>
    <g>
      <path fill="#F6F7F7" d="M210.641,301.239c-3.012,2.28,0.524,6.952,3.537,4.672C217.19,303.628,213.652,298.957,210.641,301.239z"
        />
    </g>
    <g>
      <path fill="#F6F7F7" d="M208.326,302.94c0.135-0.103,0.243-0.225,0.336-0.356c0.902-1.084,1.619-1.843,2.894-2.529
        c1.027-0.551,2.253-1.521,1.269-2.819l-3.189-4.213c-1.315-1.735-3.852,0.321-2.604,1.971l0.015,0.02l0.647,0.854l0.557,0.735
        c0,0,0.05,0.103-0.015,0.151c-0.088,0.101-0.185,0-0.185,0l-0.577-0.761l-0.627-0.829c-0.628-0.828-0.464-2.013,0.364-2.639
        l0.089-0.067l-2.204-2.909c-0.941-1.242-2.959-0.517-2.929,1.019l0,0c-0.032,0.351,0.12,0.68,0.327,0.952l2.849,3.763
        l0.019,0.024c0,0,0.05,0.103-0.015,0.152c-0.085,0.095-0.173,0.011-0.182,0.002c0,0,0,0-0.001,0.002l-2.87-3.793
        c-0.263-0.346-0.379-0.755-0.373-1.159c-1.393-0.195-2.399,1.452-1.53,2.6l2.675,3.532l0.335,0.443l1.611,2.128
        c0,0,0.049,0.103-0.015,0.151c-0.089,0.101-0.185,0-0.185,0l-1.899-2.507c-0.312,0.549-0.29,1.256,0.117,1.793l3.009,3.974
        C206.583,303.344,207.607,303.484,208.326,302.94z"/>
    </g>
  </g>
  <g>
    <g>
      <path fill="#F6F7F7" d="M234.31,282.612c-0.338,2.179,3.039,2.701,3.377,0.524C238.023,280.959,234.646,280.436,234.31,282.612z"
        />
    </g>
    <g>
      <path fill="#F6F7F7" d="M234.029,284.265c0.015-0.098,0.01-0.192-0.004-0.286c-0.062-0.819-0.069-1.429,0.188-2.233
        c0.207-0.647,0.328-1.551-0.611-1.697l-3.046-0.472c-1.254-0.194-1.484,1.696-0.292,1.882l0.014,0.002l0.618,0.096l0.532,0.082
        c0,0,0.062,0.022,0.056,0.07c0.003,0.078-0.078,0.075-0.078,0.075l-0.55-0.086l-0.6-0.093c-0.599-0.093-1.01-0.656-0.917-1.253
        l0.01-0.064l-2.104-0.326c-0.898-0.14-1.45,0.983-0.814,1.614l0,0c0.129,0.16,0.326,0.237,0.523,0.268l2.72,0.421l0.018,0.004
        c0,0,0.063,0.022,0.055,0.069c0.003,0.073-0.068,0.074-0.075,0.074c0,0,0,0,0,0.001l-2.741-0.426
        c-0.25-0.038-0.465-0.163-0.626-0.335c-0.663,0.483-0.417,1.582,0.413,1.711l2.553,0.396l0.32,0.049l1.538,0.238
        c0,0,0.062,0.023,0.056,0.07c0.004,0.077-0.077,0.075-0.077,0.075l-1.813-0.281c0.092,0.355,0.388,0.644,0.776,0.704l2.873,0.445
        C233.462,285.141,233.948,284.785,234.029,284.265z"/>
    </g>
  </g>
  <g>
    <g>
      <path fill="#F6F7F7" d="M332.711,349.777c1.156,1.034,2.756-0.757,1.603-1.792C333.157,346.952,331.556,348.744,332.711,349.777z
        "/>
    </g>
    <g>
      <path fill="#F6F7F7" d="M333.578,350.576c-0.053-0.047-0.109-0.08-0.17-0.107c-0.508-0.279-0.869-0.508-1.246-0.967
        c-0.303-0.37-0.788-0.786-1.234-0.289l-1.445,1.615c-0.595,0.666,0.432,1.525,0.999,0.894l0.005-0.008l0.294-0.328l0.252-0.281
        c0,0,0.037-0.027,0.062-0.007c0.047,0.028,0.016,0.074,0.016,0.074l-0.262,0.293l-0.285,0.318
        c-0.284,0.316-0.773,0.344-1.09,0.062l-0.035-0.031l-0.997,1.117c-0.427,0.475,0.024,1.229,0.641,1.097l0,0
        c0.143-0.014,0.263-0.101,0.357-0.205l1.291-1.444l0.008-0.008c0,0,0.037-0.029,0.062-0.007c0.046,0.027,0.019,0.069,0.016,0.072
        c0,0,0,0,0.002,0.002l-1.303,1.453c-0.118,0.133-0.273,0.213-0.438,0.24c0.032,0.577,0.773,0.853,1.167,0.412l1.212-1.354
        l0.152-0.171l0.729-0.815c0,0,0.038-0.028,0.063-0.006c0.046,0.026,0.015,0.073,0.015,0.073l-0.86,0.962
        c0.244,0.083,0.526,0.019,0.712-0.188l1.363-1.523C333.877,351.245,333.854,350.822,333.578,350.576z"/>
    </g>
  </g>
  <g>
    <g>
      <path fill="#F6F7F7" d="M307.869,322.16c3.64,1.02,5.221-4.622,1.583-5.642C305.812,315.5,304.231,321.143,307.869,322.16z"/>
    </g>
    <g>
      <path fill="#F6F7F7" d="M310.626,322.975c-0.164-0.046-0.326-0.057-0.488-0.051c-1.408-0.062-2.445-0.175-3.765-0.776
        c-1.059-0.483-2.573-0.873-3.012,0.696l-1.425,5.088c-0.587,2.097,2.585,2.873,3.142,0.881l0.007-0.023l0.289-1.032l0.249-0.889
        c0,0,0.052-0.103,0.131-0.079c0.133,0.009,0.111,0.146,0.111,0.146l-0.258,0.919l-0.28,1.001
        c-0.28,1.001-1.322,1.588-2.322,1.307l-0.105-0.028l-0.984,3.514c-0.42,1.502,1.379,2.669,2.582,1.716l0,0
        c0.299-0.186,0.47-0.505,0.562-0.836l1.271-4.545l0.01-0.028c0,0,0.051-0.104,0.13-0.08c0.128,0.011,0.113,0.13,0.112,0.143
        c0,0,0,0,0.002,0.001l-1.284,4.579c-0.116,0.418-0.373,0.758-0.698,0.998c0.688,1.228,2.608,1.032,2.995-0.354l1.195-4.267
        l0.149-0.534l0.722-2.571c0,0,0.051-0.102,0.129-0.08c0.134,0.011,0.111,0.148,0.111,0.148l-0.848,3.028
        c0.626-0.084,1.176-0.53,1.356-1.179l1.345-4.8C312,324.118,311.494,323.219,310.626,322.975z"/>
    </g>
  </g>
  <g>
    <g>
      <path fill="#F6F7F7" d="M263.4,290.816c3.059-2.22-0.384-6.962-3.441-4.742C256.901,288.296,260.344,293.037,263.4,290.816z"/>
    </g>
    <g>
      <path fill="#F6F7F7" d="M265.75,289.161c-0.138,0.1-0.247,0.221-0.343,0.351c-0.923,1.064-1.655,1.81-2.945,2.471
        c-1.037,0.529-2.282,1.476-1.323,2.793l3.104,4.275c1.278,1.762,3.857-0.243,2.64-1.917l-0.013-0.021l-0.631-0.867l-0.542-0.746
        c0,0-0.049-0.104,0.019-0.151c0.089-0.099,0.185,0.003,0.185,0.003l0.561,0.773l0.61,0.84c0.612,0.842,0.425,2.023-0.416,2.633
        l-0.089,0.064l2.145,2.953c0.917,1.262,2.948,0.575,2.948-0.959l0,0c0.039-0.351-0.104-0.683-0.307-0.96l-2.774-3.818
        l-0.017-0.024c0,0-0.049-0.104,0.019-0.151c0.088-0.094,0.171-0.008,0.18,0.001c0,0,0,0,0.003-0.001l2.794,3.85
        c0.254,0.35,0.362,0.762,0.35,1.166c1.388,0.222,2.427-1.405,1.58-2.568l-2.603-3.586l-0.327-0.448l-1.567-2.162
        c0,0-0.049-0.103,0.017-0.151c0.093-0.097,0.187,0.006,0.187,0.006l1.848,2.544c0.322-0.542,0.314-1.251-0.082-1.796
        l-2.928-4.032C267.5,288.793,266.48,288.633,265.75,289.161z"/>
    </g>
  </g>
  <g>
    <g>
      <path fill="#F6F7F7" d="M300.041,274.986c2.27,1.303,4.292-2.218,2.022-3.52C299.791,270.163,297.771,273.684,300.041,274.986z"
        />
    </g>
    <g>
      <path fill="#F6F7F7" d="M301.753,276.002c-0.101-0.059-0.208-0.094-0.317-0.117c-0.936-0.281-1.613-0.533-2.397-1.161
        c-0.628-0.505-1.58-1.024-2.142-0.044l-1.82,3.175c-0.751,1.307,1.248,2.367,1.96,1.123l0.009-0.013l0.369-0.645l0.318-0.555
        c0,0,0.052-0.06,0.102-0.031c0.087,0.028,0.05,0.117,0.05,0.117l-0.329,0.575l-0.359,0.624c-0.357,0.624-1.158,0.841-1.78,0.482
        l-0.066-0.038l-1.259,2.193c-0.536,0.938,0.473,2.025,1.442,1.591l0,0c0.233-0.074,0.401-0.26,0.52-0.466l1.626-2.836
        l0.013-0.018c0,0,0.051-0.061,0.101-0.031c0.083,0.029,0.053,0.105,0.05,0.114c0,0,0,0,0.002,0l-1.642,2.858
        c-0.148,0.26-0.378,0.445-0.638,0.551c0.253,0.941,1.575,1.137,2.072,0.271l1.527-2.66l0.19-0.335l0.922-1.604
        c0,0,0.052-0.06,0.101-0.032c0.088,0.031,0.049,0.119,0.049,0.119l-1.083,1.89c0.434,0.05,0.879-0.156,1.11-0.561l1.72-2.994
        C302.482,277.004,302.295,276.312,301.753,276.002z"/>
    </g>
  </g>
  <g>
    <g>
      <path fill="#F6F7F7" d="M180.388,349.071c2.888,0.773,4.086-3.703,1.199-4.477S177.501,348.299,180.388,349.071z"/>
    </g>
    <g>
      <path fill="#F6F7F7" d="M182.575,349.69c-0.13-0.034-0.258-0.042-0.386-0.036c-1.115-0.037-1.937-0.116-2.984-0.579
        c-0.843-0.373-2.044-0.669-2.377,0.576l-1.082,4.038c-0.445,1.663,2.072,2.249,2.495,0.668l0.004-0.018l0.219-0.82l0.189-0.704
        c0,0,0.04-0.081,0.102-0.064c0.105,0.007,0.09,0.114,0.09,0.114l-0.196,0.73l-0.212,0.795c-0.213,0.794-1.032,1.267-1.826,1.055
        l-0.084-0.023l-0.747,2.79c-0.318,1.189,1.116,2.099,2.06,1.333l0,0c0.233-0.15,0.366-0.404,0.435-0.665l0.966-3.607l0.007-0.023
        c0,0,0.04-0.081,0.102-0.064c0.101,0.008,0.091,0.103,0.09,0.112c0,0,0,0,0.001,0l-0.974,3.634
        c-0.088,0.332-0.288,0.604-0.543,0.797c0.555,0.965,2.072,0.792,2.367-0.309l0.906-3.386l0.114-0.424l0.546-2.04
        c0,0,0.04-0.081,0.102-0.063c0.105,0.006,0.09,0.115,0.09,0.115l-0.643,2.403c0.495-0.072,0.925-0.43,1.062-0.943l1.02-3.809
        C183.673,350.584,183.264,349.875,182.575,349.69z"/>
    </g>
  </g>
  <g>
    <g>
      <path fill="#F6F7F7" d="M296.065,375.498c-2.049,2.177,1.325,5.354,3.374,3.178C301.488,376.498,298.113,373.322,296.065,375.498
        z"/>
    </g>
    <g>
      <path fill="#F6F7F7" d="M294.484,377.131c0.091-0.098,0.159-0.206,0.215-0.322c0.561-0.964,1.02-1.649,1.924-2.354
        c0.728-0.564,1.557-1.483,0.617-2.366l-3.043-2.865c-1.254-1.18-2.963,0.76-1.771,1.881l0.014,0.013l0.618,0.583l0.53,0.498
        c0,0,0.054,0.074,0.009,0.121c-0.056,0.09-0.144,0.025-0.144,0.025l-0.55-0.518l-0.601-0.564
        c-0.599-0.562-0.626-1.509-0.063-2.107l0.06-0.063l-2.102-1.979c-0.897-0.844-2.377-0.014-2.15,1.181l0,0
        c0.022,0.278,0.183,0.515,0.379,0.698l2.72,2.561l0.018,0.018c0,0,0.053,0.073,0.009,0.119c-0.055,0.085-0.134,0.032-0.142,0.027
        c0,0,0,0-0.001,0.001l-2.738-2.58c-0.251-0.234-0.396-0.539-0.444-0.854c-1.112,0.029-1.68,1.448-0.851,2.229l2.554,2.401
        l0.319,0.301l1.537,1.449c0,0,0.053,0.073,0.008,0.119c-0.055,0.09-0.144,0.024-0.144,0.024l-1.812-1.705
        c-0.171,0.471-0.059,1.018,0.328,1.384l2.871,2.701C293.179,377.675,293.995,377.651,294.484,377.131z"/>
    </g>
  </g>
  <g>
    <g>
      <path fill="#F6F7F7" d="M235.469,335.825c0.852,2.866,5.294,1.545,4.442-1.319C239.06,331.64,234.616,332.961,235.469,335.825z"
        />
    </g>
    <g>
      <path fill="#F6F7F7" d="M236.085,338.013c-0.038-0.128-0.1-0.241-0.171-0.347c-0.552-0.97-0.914-1.712-1.067-2.847
        c-0.123-0.914-0.5-2.093-1.736-1.725l-4.006,1.19c-1.65,0.492-0.833,2.943,0.736,2.477l0.018-0.006l0.813-0.242l0.699-0.207
        c0,0,0.091-0.009,0.109,0.054c0.05,0.094-0.051,0.136-0.051,0.136l-0.725,0.216l-0.789,0.235
        c-0.787,0.234-1.619-0.217-1.854-1.005l-0.024-0.083l-2.769,0.823c-1.18,0.351-1.205,2.049-0.059,2.453l0,0
        c0.25,0.119,0.537,0.101,0.794,0.023l3.58-1.065l0.023-0.006c0,0,0.09-0.01,0.108,0.052c0.046,0.09-0.04,0.132-0.049,0.136
        c0,0.001,0,0.001,0.001,0.002l-3.606,1.071c-0.33,0.098-0.665,0.07-0.963-0.047c-0.533,0.978,0.409,2.181,1.5,1.855l3.36-0.999
        l0.421-0.125l2.023-0.603c0,0,0.091-0.008,0.108,0.054c0.05,0.093-0.051,0.138-0.051,0.138l-2.386,0.71
        c0.321,0.384,0.851,0.563,1.361,0.411l3.778-1.123C235.898,339.417,236.288,338.697,236.085,338.013z"/>
    </g>
  </g>
  <g>
    <g>
      <path fill="#F6F7F7" d="M255.916,405.813c0.409-2.046-2.762-2.679-3.17-0.635C252.336,407.224,255.508,407.857,255.916,405.813z"
        />
    </g>
    <g>
      <path fill="#F6F7F7" d="M256.248,404.264c-0.018,0.091-0.017,0.182-0.008,0.269c0.025,0.777,0.006,1.354-0.27,2.104
        c-0.222,0.604-0.374,1.454,0.509,1.63l2.859,0.572c1.178,0.233,1.473-1.544,0.354-1.767l-0.014-0.004l-0.58-0.114l-0.498-0.101
        c0,0-0.059-0.023-0.05-0.068c0-0.073,0.076-0.067,0.076-0.067l0.517,0.104l0.563,0.111c0.561,0.113,0.927,0.661,0.815,1.224
        l-0.014,0.06l1.977,0.395c0.843,0.169,1.411-0.87,0.836-1.493l0,0c-0.115-0.154-0.299-0.237-0.482-0.272l-2.556-0.512
        l-0.016-0.003c0,0-0.059-0.024-0.05-0.068c0.001-0.07,0.068-0.068,0.073-0.067c0.002-0.001,0.002-0.001,0-0.001l2.574,0.515
        c0.235,0.047,0.433,0.173,0.579,0.343c0.646-0.43,0.458-1.478-0.32-1.634l-2.397-0.479l-0.301-0.061l-1.444-0.288
        c0,0-0.06-0.025-0.049-0.069c-0.001-0.072,0.075-0.066,0.075-0.066l1.703,0.339c-0.073-0.341-0.342-0.625-0.705-0.697
        l-2.697-0.539C256.822,403.459,256.346,403.775,256.248,404.264z"/>
    </g>
  </g>
  <circle class="bubble" fill="none" stroke="#F6F7F7" stroke-miterlimit="10" cx="267.742" cy="221.179" r="9.31"/>
  <circle class="bubble" fill="none" stroke="#F6F7F7" stroke-miterlimit="10" cx="239.174" cy="40.634" r="9.31"/>
  <circle class="bubble" fill="none" stroke="#F6F7F7" stroke-miterlimit="10" cx="230.439" cy="198.732" r="5.146"/>
  <circle class="bubble" fill="none" stroke="#F6F7F7" stroke-miterlimit="10" cx="257.423" cy="146.87" r="8.133"/>
  <circle class="bubble" fill="none" stroke="#F6F7F7" stroke-miterlimit="10" cx="233.805" cy="90.059" r="5.084"/>
  <circle class="bubble" fill="none" stroke="#F6F7F7" stroke-miterlimit="10" cx="250.032" cy="74.29" r="3.028"/>


</svg>