<svg class="slide-visual" xmlns="http://www.w3.org/2000/svg" width="200" height="200" viewBox="0 0 200 200" data-200-center="transform: translate(0,-100px); opacity:0" data--50-center="transform: translate(0,0px); opacity:1"><circle fill="none" stroke="#F7F7F7" stroke-width="5" stroke-linecap="round" stroke-linejoin="round" stroke-miterlimit="10" cx="100.107" cy="59.492" r="30.679"/><circle fill="none" stroke="#F7F7F7" stroke-width="5" stroke-linecap="round" stroke-linejoin="round" stroke-miterlimit="10" cx="99.5" cy="100.333" r="93.335"/><path fill="none" stroke="#F7F7F7" stroke-width="5" stroke-linecap="round" stroke-linejoin="round" stroke-miterlimit="10" d="M34 165.833V129.53c0-16.945 14.716-30.68 31.66-30.68 7.2 0 23.99 6.196 34.267 6.196s25.704-6.197 33.086-6.197c16.945 0 29.987 13.734 29.987 30.68v36.303"/><path fill="none" stroke="#F7F7F7" stroke-width="2" stroke-linecap="round" stroke-linejoin="round" stroke-miterlimit="10" d="M100.227 162.585V145.85"/><path fill="none" stroke="#F7F7F7" stroke-width="2" stroke-linecap="round" stroke-linejoin="round" stroke-miterlimit="10" d="M100.202 145.386l-5.607 5.607"/><path fill="none" stroke="#F7F7F7" stroke-width="2" stroke-linecap="round" stroke-linejoin="round" stroke-miterlimit="10" d="M100.252 145.386l5.604 5.607"/><path fill="none" stroke="#F7F7F7" stroke-width="2" stroke-linecap="round" stroke-linejoin="round" stroke-miterlimit="10" d="M100.405 175.076c23.12-28.615 23.176-35.32 23.112-40.345 0-5.99-5.177-9.5-11.556-9.5-6.377 0-11.554 7.603-11.554 13.603h-.115c0-6-5.17-13.604-11.55-13.604-6.38 0-11.5 4.535-11.5 10.525-.064 5.024.046 10.706 23.165 39.32z"/></svg>