<svg class="slide-visual" xmlns="http://www.w3.org/2000/svg" width="200" height="200" viewBox="0 0 200 200" data-150-center="transform: translate(0,-100px); opacity:0" data--100-center="transform: translate(0,0px); opacity:1"><circle fill="none" stroke="#F7F7F7" stroke-width="5" stroke-linecap="round" stroke-linejoin="round" stroke-miterlimit="10" cx="100.107" cy="94.492" r="30.679"/><circle fill="none" stroke="#F7F7F7" stroke-width="5" stroke-linecap="round" stroke-linejoin="round" stroke-miterlimit="10" cx="99.5" cy="100.333" r="93.335"/><path fill="none" stroke="#F7F7F7" stroke-width="5" stroke-linecap="round" stroke-linejoin="round" stroke-miterlimit="10" d="M34 165.833v-1.303c0-16.945 14.716-30.68 31.66-30.68 7.2 0 23.99 6.196 34.267 6.196s25.704-6.197 33.086-6.197c16.945 0 29.987 13.734 29.987 30.68v1.303"/><g fill="none" stroke="#F7F7F7" stroke-width="2" stroke-linecap="round" stroke-linejoin="round" stroke-miterlimit="10"><path d="M100.107 18.653c6.083 0 10.096 4.013 10.096 10.096 0 3.42-.643 6.478-3.09 8.498 0 0-2.218 1.638-3.38 6.265 0 0-.097.632-.728.962l-5.98 2.758M100.107 18.653c-6.083 0-10.096 4.013-10.096 10.096 0 3.42.644 6.478 3.09 8.498 0 0 2.605 1.923 3.648 7.494"/></g><path fill="none" stroke="#F7F7F7" stroke-width="2" stroke-linecap="round" stroke-linejoin="round" stroke-miterlimit="10" d="M103.572 46.966l-6.547 3.02M102.39 50.266l-4.118 1.9M40.256 78.96c-1.648.806-3.074 1.342-4.277 1.703-1.2-.36-2.623-.897-4.27-1.704-5.63-2.757-10.21.803-10.21.803v13s4.477-3.467 10.015-.887c0 0 3.5 1.29 4.5 1.788.922-.438 4.485-1.78 4.485-1.78 5-2.597 10 .88 10 .88v-13s-4.615-3.56-10.244-.805z"/><path fill="none" stroke="#F7F7F7" stroke-linecap="round" stroke-linejoin="round" stroke-miterlimit="10" d="M36 80.833v13M37.832 85.973c.71-.28 1.168-.613 2.168-1.014V81.88c-1 .4-1.522.735-2.232 1.014l.064 3.077z"/><path fill="none" stroke="#F7F7F7" stroke-width="2" stroke-linecap="round" stroke-linejoin="round" stroke-miterlimit="10" d="M163.5 90.333c0 3.59-2.91 6.5-6.5 6.5s-6.5-2.91-6.5-6.5v-8c0-3.59 2.91-6.5 6.5-6.5s6.5 2.91 6.5 6.5v8zM157 79.833v3M157 75.833s-1.67-3.122.354-5.746-.5-6.073-.5-6.073"/><path fill="none" stroke="#F7F7F7" stroke-linecap="round" stroke-linejoin="round" stroke-miterlimit="10" d="M47.798 81.423c-1.514-.495-3.558-.79-5.852-.12M47.798 84.423c-1.514-.495-3.558-.79-5.852-.12M47.798 87.423c-1.877-.613-4.568-.92-7.542.536-.986.482-1.893.868-2.72 1.178M23.727 81.586c1.873-.71 4.755-1.207 7.982.373.833.407 1.608.746 2.327 1.028M23.727 84.586c1.873-.71 4.755-1.207 7.982.373.833.407 1.608.746 2.327 1.028M23.727 87.586c1.873-.71 4.755-1.207 7.982.373.833.407 1.608.746 2.327 1.028"/></svg>