<svg id="Layer_1" xmlns="http://www.w3.org/2000/svg" width="230.5" height="160.5" viewBox="0 0 230.5 160.5"><path fill="#F7F7F7" d="M178.334 74.818h-13.996c-.943 0-1.71-.765-1.71-1.71s.767-1.71 1.71-1.71h13.996c.944 0 1.71.767 1.71 1.71s-.766 1.71-1.71 1.71zM194.518 94.482h-11.376c-.944 0-1.71-.765-1.71-1.71s.766-1.71 1.71-1.71h11.376c.945 0 1.71.767 1.71 1.71s-.765 1.71-1.71 1.71zM143.344 97.998c-.754 0-1.42-.492-1.637-1.215l-6.997-23.18c-.274-.902.24-1.856 1.143-2.128.906-.278 1.858.238 2.13 1.143l5.36 17.756 5.362-17.756c.27-.902 1.224-1.42 2.13-1.143.903.27 1.417 1.226 1.143 2.13l-6.998 23.178c-.216.723-.882 1.215-1.636 1.215z"/><path fill="#F7F7F7" d="M195.827 97.998c-.734 0-1.414-.476-1.637-1.215l-5.36-17.757-5.36 17.757c-.27.903-1.218 1.42-2.13 1.143-.904-.273-1.418-1.227-1.143-2.13l6.997-23.178c.217-.723.883-1.217 1.635-1.217.754 0 1.42.495 1.636 1.218l6.998 23.178c.273.903-.238 1.856-1.143 2.13-.164.05-.33.072-.493.072zM157.34 98c-.945 0-1.71-.765-1.71-1.708V79.997c0-.945.765-1.71 1.71-1.71s1.71.765 1.71 1.71v16.295c0 .943-.767 1.71-1.71 1.71zM209.81 98c-.942 0-1.71-.765-1.71-1.708V79.997c0-.945.768-1.71 1.71-1.71.945 0 1.712.765 1.712 1.71v16.295c0 .943-.767 1.71-1.71 1.71z"/><path fill="none" stroke="#F7F7F7" stroke-width="1.4" stroke-linecap="round" stroke-linejoin="round" stroke-miterlimit="10" d="M209.81 96.292 209.81 73.11"/><path fill="#F7F7F7" d="M171.334 98.003c-.945 0-1.71-.765-1.71-1.71V73.268c0-.944.765-1.71 1.71-1.71.943 0 1.71.766 1.71 1.71v23.027c0 .944-.767 1.71-1.71 1.71z"/><path fill="#FFF" d="M202.827 94.54h-.01c-.93 0-1.693.737-1.743 1.656v.087c.008.967.787 1.752 1.753 1.752.96 0 1.74-.785 1.746-1.754-.005-.955-.79-1.74-1.746-1.74z"/><path fill="#F7F7F7" d="M157.344 71.362h-.01c-.93 0-1.693.738-1.743 1.656v.09c.008.964.788 1.75 1.754 1.75.96 0 1.74-.786 1.745-1.754-.005-.956-.79-1.742-1.746-1.742zM209.813 71.365h-.01c-.93 0-1.693.737-1.743 1.655v.09c.007.965.786 1.75 1.753 1.75.96 0 1.74-.785 1.746-1.753-.005-.957-.79-1.742-1.747-1.742zM229.048 77.837c-.038-3.428-2.75-6.214-6.2-6.366h-1.583c-3.45.153-6.16 2.94-6.202 6.367l-.005 13.644c0 3.417 2.686 6.252 6.113 6.447h1.768c3.432-.195 6.115-3.03 6.115-6.446l-.005-13.643zm-6.955 16.696l-.055.002c-1.934-.23-3.414-1.874-3.414-3.84l.002-12.008c.026-1.948 1.49-3.554 3.408-3.784h.04c1.917.23 3.384 1.836 3.41 3.784v12.01c0 1.954-1.466 3.59-3.39 3.836z"/><path fill="#FFF" d="M37.48 2.1c5.814 0 9.4 6.2 3.363 14.272-7.228 9.666-13.875 21.052-15.41 33.423 10.738.833 21.364 4.685 30.524 11.755 1.234.953 2.4 1.958 3.536 2.99-.427-.417-.852-.834-1.29-1.236 14.37 8.65 25.07 23.137 28.45 40.71.713-.065 1.425-.132 2.135-.224 1.638-.21 3.103-.305 4.393-.305 10.166 0 9.45 5.895-3.46 7.558-.702.09-1.41.157-2.115.222 1.08 15.04-3.435 29.367-11.915 40.748-3.12 4.188-6.61 5.93-9.53 5.93-5.83 0-9.384-6.95-3.155-15.277 7.058-9.44 12.972-19.73 14.414-31.38-10.57-.91-21.012-4.75-30.034-11.712-1.17-.904-2.28-1.856-3.36-2.83-13.874-8.567-24.246-22.596-27.73-39.592-.58.057-1.16.107-1.74.182-1.64.21-3.103.306-4.395.306-10.16 0-9.444-5.896 3.462-7.56.544-.07 1.09-.116 1.637-.17-1.29-15.315 3.243-29.933 11.864-41.504C30.434 3.962 34.29 2.098 37.48 2.1M25.425 60.207c-.082-.774-.16-1.55-.21-2.326 2.565 13.208 9.743 25.574 21.233 34.442 9.373 7.235 20.28 11.112 31.272 11.82-.055-1.423-.185-2.867-.386-4.33C74.264 87.906 67.38 76.893 56.89 68.8c-9.507-7.338-20.592-11.216-31.743-11.84.05 1.076.142 2.16.28 3.248M37.48.098c-4.234 0-8.593 2.593-11.96 7.113-8.8 11.812-13.164 26.272-12.388 40.918C5.424 49.162.96 51.78 1.176 55.153c.086 1.35 1.135 4.487 8.984 4.487 1.4 0 2.935-.105 4.565-.312C18.523 75.424 28.68 89.562 42.82 98.35c1.226 1.1 2.292 1.995 3.343 2.806 8.45 6.52 18.427 10.612 28.974 11.902-1.524 8.966-5.82 17.824-13.734 28.41-3.632 4.853-4.64 10.07-2.696 13.95 1.42 2.832 4.205 4.523 7.454 4.523 3.945 0 7.898-2.39 11.134-6.734 8.63-11.58 13.002-25.766 12.416-40.147l.268-.035c7.853-1.012 12.41-3.65 12.19-7.054-.086-1.35-1.135-4.486-8.986-4.486-1.423 0-2.987.108-4.647.32-.096.014-.19.025-.288.037-3.737-16.757-14.23-31.354-29.013-40.25l-.207-.125c-.635-.54-1.243-1.03-1.85-1.5-4.31-3.327-9.013-6.02-13.986-8.032l-.927-.558.362.333c-4.763-1.87-9.767-3.118-14.905-3.704 1.62-9.39 6.452-19.373 14.724-30.435 3.484-4.658 4.44-9.41 2.625-13.034C43.68 1.758 40.84.1 37.48.1zm38.092 101.856c-10.153-1.075-19.756-4.927-27.9-11.213C37.468 82.868 30.36 71.7 27.524 59.15c10.25 1.038 19.932 4.895 28.144 11.234 9.777 7.542 16.588 17.85 19.7 29.816.08.588.148 1.174.202 1.754z" opacity="0" data-400="opacity:0" data-800="opacity:0.4"/><path fill="#CDF6F7" d="M46.45 92.324c12.525 9.668 27.79 13.344 42.338 11.466 14.544-1.87 15.48 5.378.933 7.253-14.545 1.875-29.807-1.803-42.335-11.47-13.573-10.475-21.14-25.833-22.17-41.69C27.78 71.09 34.96 83.455 46.45 92.322z"/><path fill="#95D2DA" d="M55.878 120.528"/><path fill="#FFF2BD" d="M56.89 68.8c-12.524-9.668-27.788-13.343-42.334-11.466-14.546 1.872-15.48-5.38-.935-7.253 14.547-1.874 29.81 1.8 42.337 11.47 13.575 10.476 21.14 25.832 22.168 41.692-2.563-13.21-9.742-25.576-21.234-34.44z"/><path fill="#FCD724" d="M77.298 99.502c2.4 16.667-4.946 30.66-14.294 43.163-9.35 12.498 3.34 21.894 12.686 9.348 9.304-12.485 13.856-28.514 11.46-45.14-2.72-18.863-13.802-34.454-28.946-43.57 9.99 9.175 17.004 21.722 19.094 36.2z"/><path fill="#95D2DA" d="M44.61 97.12c-9.993-9.18-17.006-21.725-19.096-36.202-2.404-16.666 5.98-32.044 15.328-44.546 9.35-12.498-4.374-20.51-13.72-7.966C17.82 20.89 13.265 36.92 15.662 53.55 18.382 72.41 29.464 88 44.612 97.12"/></svg>