<svg class="medium-4 column slide-visual" xmlns="http://www.w3.org/2000/svg" width="330" height="440" viewBox="0 0 330 440"><path fill="#F6F7F7" d="M275 197.68c32 0 32-50.354 0-50.354-33 0-33 50.355 0 50.355z"/><path fill="#F6F7F7" d="M286.923 201.04c-12.3 1.918-21.04.435-32.85-2.314C245.18 195.94 236 202.71 236 212.06v42.84c0 5.783 4 10.744 9 12.89v-27.027s.06-1.188 1.19-.962c.698 0 .81.963.81.963V306.545c0 12.386 15.19 18.464 23.72 9.89-2.14-2.744-3.72-6.146-3.72-9.89v-40.712h.213c.014 0 .006-1.217 1.08-1 .697 0 .707.883.707.883v40.828c0 2.935.645 5.98 2.668 8.213 7.76 10.68 25.332 5.176 25.332-8.212v-31.712h-.527c-8.924 0-16.473-6.922-16.473-15.846V241.84s.06-1.188 1.19-.96c.7 0 .81.96.81.96v17.148-.154c0 18 28 19 28 0v-45.05c0-14.012-13.174-14.29-23.077-12.744-12.3 1.918 9.903-1.547 0 0z"/><path fill="#F6F7F7" d="M180 169.705c25 0 25-39.4 0-39.4-26 0-26 39.4 0 39.4z"/><path fill="#F6F7F7" d="M57 170.568c21 0 21-32.616 0-32.616s-21 32.616 0 32.616z"/><path fill="#F6F7F7" d="M209.086 298.076c-14.2 2.215-24.437.5-38.074-2.67C160.745 292.18 150 300.008 150 310.797v49.463c0 6.678 4 12.407 10 14.885v-31.207s-.087-1.372 1.218-1.11c.81 0 .782 1.11.782 1.11v75.952c0 14.302 17.99 21.317 27.84 11.418-2.47-3.165-3.84-7.095-3.84-11.418v-47.057h.064c.014 0 .438-1.38 1.68-1.13.81 0 1.256 1.045 1.256 1.045V419.89c0 3.387.582 6.9 2.918 9.48 8.96 12.334 29.082 5.98 29.082-9.48v-36.057h-1.157c-10.304 0-18.843-8.55-18.843-18.852V345.183s.417-1.372 1.722-1.11c.806 0 1.278 1.11 1.278 1.11v19.8-.15c0 21 32 22 32 0V312.79c0-16.18-15.482-16.5-26.914-14.714-14.2 2.215 11.432-1.786 0 0z"/><path fill="#F6F7F7" d="M116 202.338c31 0 31-47.022 0-47.022-30 0-30 47.022 0 47.022z"/><path fill="#F6F7F7" d="M94.8 267.565c-.507-3.23-1.8-6.21-4.8-8.06v.015c-1-.422-1-.775-2-1.088v-.014c-2-1.08-5.2-1.51-7.86-1.607 0 .005.003.01.003.01-7.376-.278-14.608 1.7-22.016 1.47-7.028-.22-13.792-1.642-20.62-3.23C28.387 252.202 19 259.146 19 268.734v43.94c0 5.932 3 11.02 8 13.222v-27.722s.535-1.22 1.694-.987c.72 0 1.306.987 1.306.987V365.648c0 12.704 15.822 18.937 24.573 10.142-2.197-2.814-3.573-6.303-3.573-10.143v-41.814h-.3c.014 0 .238-1.22 1.34-.998.72 0 .96.935.96.935v41.878c0 3.01.803 6.13 2.877 8.423C63.84 385.026 82 379.38 82 365.648v-31.814h-1.29c-9.154 0-16.71-7.812-16.71-16.965V299.28s.037-1.22 1.194-.985c.72 0 .806.985.806.985v17.587-.034c0 18 29 19 29 0v-46.329c0-.986-.045-1.966-.2-2.94-.078-.5.034.214 0 0z"/><path fill="#F6F7F7" d="M80.12 241.585c4.32-8.017 4.56-18.866-.003-26.854v.002c-.187-.347-.387-.683-.588-1.02-4.114-8.227-14.376-11.872-23.01-11.312-7.93.514-15.152 4.556-19.237 11.437-5.83 9.818-5.022 23.615 2.596 32.28 4.694 5.34 11.54 7.87 18.56 7.87 8.995 0 17.265-4.29 21.625-12.29.02-.037.035-.075.056-.112.45-.836-.02.037 0 0z"/><path fill="#F6F7F7" d="M127.513 205.474c-11.484 1.79-19.595.406-30.623-2.16-6.907-2.164-14.203 1.846-16.213 8.816 6.21 9.632 6.323 23.62-.677 32.885v10.078c3 .107 7 .604 8 1.416v-13.943s.12-1.11 1.177-.898c.654 0 .823.897.823.897v14.896c5 3.006 7 8.32 7 13.042v44.774c5 2.604 11.008 2.368 15.404-2.05-2-2.563-3.404-5.74-3.404-9.234v-38.29c0-.48.596-.91 1.147-.798.652 0 .853.96.853.96v38.128c0 2.738.53 5.58 2.42 7.667 7.247 9.974 23.58 4.833 23.58-7.667v-29.162h-.505c-8.333 0-15.495-6.914-15.495-15.247V243.574s.123-1.11 1.177-.897c.656 0 .823.897.823.897v17.259c0 15 26 17 26 0v-43.458c0-13.085-12.24-13.345-21.487-11.9-11.484 1.79 9.247-1.445 0 0z"/><path fill="#F6F7F7" d="M34.863 214.457c.693-1.354 1.137-2.638 2.137-3.84V198.47s.39-.77 1.123-.624c.454 0 .877.624.877.624v10.436c5-6.177 13-8.717 21-8.21v-1.526s.392-.77 1.124-.623c.45 0 .876.622.876.622v1.632c7 .792 13.808 4.417 18.046 10.444.02-.274-.046-.55-.046-.84V181c0-6.71-5.537-8.906-11.418-8.636-3.897.18-7.668 1.027-11.595.932-4.537-.11-8.9-1.022-13.305-2.048C37.925 169.44 32 173.826 32 179.882v27.747c0 2.726.96 5.162 2.863 6.827.694-1.353-1.904-1.665 0 0z"/><path fill="#F6F7F7" d="M197.62 236.196c-8.25-.686-16.774 1.634-22.7 7.623-5.615 5.675-8.33 13.745-8.25 21.645.068 6.993 2.318 14.068 6.857 19.455 5.033 5.972 12.442 9.025 20.166 9.26 11.04.338 21.217-4.976 26.09-15.08 4.01-8.318 4.146-18.495.44-26.946-4.048-9.227-12.595-15.126-22.604-15.958z"/><path fill="#F6F7F7" d="M151 219.573c1 2.217 3 3.995 5 4.99v-21.15s.264-.93 1.147-.75c.55 0 .853.75.853.75V254.888c0 4.893 3.062 8.52 6.972 10.057.04-8.365 3.028-16.69 9.028-22.606v-19.506h-.016c.01 0 .31-.852 1.152-.684.55 0 .863.79.863.79v17.885c6-5.088 14-6.99 22-6.37v-3.622h-1.123c-6.98 0-12.878-6.175-12.878-13.157v-13.418s.263-.93 1.147-.752c.55 0 .852.752.852.752v13.575c0 13.91 22 14.64 22 0v-35.528c0-3.493-1.316-6.87-4.44-8.698-2.812-1.646-6.32-1.882-9.504-1.735-4.603.21-9.098 1.217-13.736 1.132-5.584-.102-10.87-1.22-16.292-2.48-6.956-2.18-14.028 3.118-14.028 10.433v29.687c1 2.152 1 4.512 1 6.732v2.197z"/><path fill="#F5F6F7" class="fader" opacity="0" d="M81 103.996V95.73c1 .015 1.09.062 1.51.184.06.018.248.033.31.046.005 0 .58.197.963.77.766 1.148 2.35 1.46 3.498.693 1.15-.766 1.476-2.318.71-3.467-1.38-2.068-3.563-2.708-4.14-2.857-.86-.247-1.85-.365-2.85-.378v-.683c0-.553-.448-1-1-1s-1 .447-1 1v.853c-1 .196-1.74.546-2.626 1.064-2.037 1.19-3.58 3.095-4.114 5.365-1.113 4.712 2.74 9.71 6.74 11.268v8.264c0-.014-.59-.06-1.01-.182-.062-.018.072-.02.076-.02-.005 0 .05 0 .01-.007-.024-.007-.54-.17-.95-.79-.765-1.148-2.303-1.46-3.45-.693-1.15.766-1.454 2.317-.688 3.466 1.378 2.07 3.076 2.71 3.65 2.86.86.244 2.362.362 2.362.376v.683c0 .552.448 1 1 1s1-.448 1-1v-.867c2-.196 2.243-.536 3.128-1.053 2.036-1.19 3.327-3.095 3.862-5.364 1.113-4.712-1.99-9.71-6.99-11.267zm-3.75-5.525c.28-1.184.924-1.847 1.52-2.195.11-.066.23-.103.23-.157v6.942c-1-1.1-2.144-2.92-1.75-4.59zm6 15.646c-.28 1.184-1.174 1.847-1.77 2.195-.11.066.52.104-.48.158v-6.94c2 1.097 2.644 2.917 2.25 4.588z"/><path fill="#F5F6F7" class="fader" opacity="0" d="M126 123.054v-8.265c1 .013 1.057.06 1.478.182.06.018.23.033.294.046.004 0 .572.197.954.77.766 1.148 2.345 1.46 3.494.693 1.15-.765 1.473-2.317.707-3.466-1.38-2.068-3.53-2.708-4.107-2.857-.86-.246-1.82-.363-2.82-.377v-.682c0-.552-.447-1-1-1s-1 .448-1 1v.854c-1 .196-1.772.546-2.658 1.064-2.036 1.19-3.562 3.095-4.098 5.365-1.112 4.712 2.757 9.71 6.757 11.27v8.263c0-.014-.62-.06-1.042-.182-.062-.017.055-.02.06-.02-.005 0 .042 0 0-.006-.022-.007-.54-.17-.953-.79-.765-1.148-2.304-1.46-3.453-.694-1.15.766-1.454 2.317-.688 3.466 1.378 2.07 3.108 2.71 3.682 2.86.86.244 2.395.362 2.395.376v.683c0 .552.45 1 1 1s1-.448 1-1v-.867c1-.196 2.21-.536 3.097-1.053 2.036-1.19 3.343-3.095 3.878-5.364 1.112-4.71-1.975-9.708-6.975-11.266zm-3.782-5.525c.28-1.186.94-1.85 1.537-2.197.11-.065.246-.103.246-.156v6.942c-1-1.1-2.176-2.922-1.782-4.59zm6 15.644c-.28 1.184-1.158 1.847-1.753 2.195-.11.064.536.102-.464.156v-6.94c2 1.097 2.61 2.917 2.217 4.588z"/><path fill="#F5F6F7" class="fader" opacity="0" d="M166 66.702v-8.265c.418.014.84.062 1.26.183.062.018.123.033.186.046.005 0 .52.198.9.77.767 1.15 2.316 1.46 3.468.693 1.148-.767 1.458-2.32.692-3.468-1.38-2.068-3.322-2.707-3.897-2.857-.862-.245-1.74-.363-2.61-.377v-.683c0-.552-.446-1-1-1-.55 0-1 .448-1 1v.855c-1 .195-1.99.546-2.875 1.063-2.037 1.19-3.454 3.095-3.99 5.365-1.113 4.712 1.865 9.71 6.865 11.268v8.264c0-.014-.84-.06-1.26-.182-.062-.018-.054-.02-.05-.02-.004 0-.012 0-.053-.007-.023-.006-.57-.17-.98-.788-.765-1.148-2.318-1.46-3.466-.694-1.148.766-1.46 2.317-.694 3.466 1.378 2.07 3.322 2.71 3.896 2.86.86.244 1.608.362 2.608.376v.683c0 .552.448 1 1 1 .553 0 1-.448 1-1v-.867c1.015-.196 1.992-.536 2.878-1.053 2.036-1.19 3.452-3.095 3.988-5.364 1.112-4.713-1.958-9.71-6.866-11.268zm-4-5.525c.28-1.185 1.05-1.848 1.646-2.196.11-.064.354-.102.354-.156v6.942c-2-1.1-2.394-2.92-2-4.59zm6 15.644c-.28 1.185-1.05 1.85-1.645 2.197-.11.065-.237.103-.355.156V72.23c1.527 1.1 2.394 2.92 2 4.59z"/><path fill="#F5F6F7" class="fader" opacity="0" d="M286 120.25v-8.265c0 .014.752.06 1.172.183.062.018.08.033.143.046.004 0 .496.198.878.77.768 1.15 2.307 1.46 3.457.693 1.148-.766 1.453-2.318.688-3.467-1.38-2.068-3.238-2.707-3.813-2.857-.86-.245-1.523-.363-2.523-.377v-.683c0-.552-.447-1-1-1s-1 .448-1 1v.854c-1 .195-2.077.546-2.963 1.063-2.038 1.19-3.41 3.095-3.948 5.366-1.11 4.712 1.91 9.71 6.91 11.268v8.264c-1-.014-.927-.06-1.347-.183-.062-.018-.167-.033-.228-.046-.006-.002-.54-.198-.923-.77-.766-1.15-2.327-1.46-3.478-.695-1.148.766-1.464 2.318-.698 3.467 1.38 2.07 3.406 2.71 3.98 2.858.86.245 1.692.363 2.692.377v.683c0 .552.447 1 1 1s1-.448 1-1v-.867c1-.196 1.904-.536 2.79-1.052 2.036-1.19 3.495-3.094 4.032-5.364 1.112-4.71-1.822-9.708-6.822-11.266zm-4.088-5.525c.28-1.185 1.094-1.85 1.69-2.197.11-.065.397-.103.397-.156v6.94c-2-1.098-2.48-2.918-2.088-4.587zm6 15.644c-.28 1.183-1.006 1.847-1.602 2.195-.11.065-.31.103-.31.156v-6.94c1 1.1 2.306 2.92 1.91 4.59z"/><path fill="#F5F6F7" class="fader" opacity="0" d="M209 107.163v-8.266c1 .014.99.06 1.41.183.06.018.197.033.26.046.005 0 .557.198.938.77.768 1.15 2.337 1.46 3.487.693 1.148-.767 1.467-2.32.7-3.468-1.38-2.068-3.467-2.707-4.042-2.857-.86-.245-1.753-.363-2.753-.377v-.683c0-.552-.447-1-1-1s-1 .448-1 1v.854c-1 .194-1.84.545-2.726 1.062-2.037 1.19-3.53 3.095-4.066 5.366-1.11 4.712 1.792 9.71 6.792 11.268v8.265c0-.013-.69-.06-1.11-.182-.06-.018-.047-.033-.108-.046-.005 0-.48-.197-.863-.77-.767-1.15-2.298-1.458-3.448-.694-1.148.766-1.45 2.318-.685 3.467 1.38 2.07 3.177 2.71 3.75 2.858.862.245 1.464.363 2.464.377v.683c0 .552.448 1 1 1s1-.448 1-1v-.867c1-.196 2.143-.536 3.027-1.052 2.037-1.19 3.378-3.095 3.914-5.365 1.112-4.71-1.94-9.71-6.94-11.267zm-3.85-5.525c.28-1.185.974-1.85 1.57-2.197.11-.063.28-.102.28-.155v6.94c-1-1.098-2.244-2.918-1.85-4.587zm5.998 15.644c-.28 1.184-1.123 1.848-1.72 2.196-.11.065-.43.103-.43.156v-6.94c2.002 1.098 2.545 2.918 2.15 4.588z"/><path fill="#F5F6F7" class="fader" opacity="0" d="M164 114.184v-8.265c0 .013.714.06 1.134.182.06.018.06.033.124.046.004 0 .487.198.87.77.766 1.15 2.3 1.46 3.45.693 1.15-.765 1.45-2.317.686-3.466-1.38-2.068-3.2-2.708-3.777-2.857-.86-.245-1.486-.363-2.486-.376v-.682c0-.552-.447-1-1-1s-1 .448-1 1v.854c-1 .196-2.114.546-3 1.063-2.037 1.19-3.392 3.095-3.928 5.366-1.11 4.712 1.93 9.71 6.93 11.27v8.263c-1-.014-.965-.06-1.386-.182-.06-.017-.185-.032-.246-.045-.005 0-.55-.197-.93-.77-.767-1.15-2.335-1.46-3.483-.694-1.15.767-1.468 2.32-.702 3.468 1.38 2.07 3.442 2.708 4.017 2.858.86.246 1.73.364 2.73.377v.683c0 .552.447 1 1 1s1-.448 1-1v-.867c1-.197 1.866-.537 2.75-1.053 2.038-1.19 3.516-3.095 4.052-5.365 1.11-4.713-1.804-9.71-6.804-11.268zm-4.125-5.525c.28-1.186 1.11-1.85 1.708-2.198.11-.065.417-.103.417-.157v6.942c-2-1.1-2.52-2.92-2.125-4.588zm6 15.643c-.28 1.184-.987 1.848-1.583 2.196-.11.064-.292.102-.292.155v-6.94c1 1.098 2.268 2.918 1.874 4.588z"/><path fill="#F5F6F7" class="fader" opacity="0" d="M61 114.183v-8.265c1 .014.917.06 1.337.183.06.02.162.034.225.047.004 0 .538.198.92.77.766 1.15 2.327 1.46 3.477.693 1.148-.766 1.462-2.318.696-3.467-1.38-2.068-3.397-2.707-3.973-2.857-.86-.246-1.683-.363-2.683-.377v-.684c0-.552-.448-1-1-1s-1 .448-1 1v.854c-1 .196-1.913.546-2.798 1.063-2.037 1.19-3.493 3.095-4.03 5.366-1.11 4.712 1.828 9.71 6.828 11.268v8.264c0-.014-.762-.06-1.182-.182-.06-.018-.083-.033-.145-.046-.005 0-.5-.197-.88-.77-.766-1.15-2.31-1.46-3.457-.694-1.15.766-1.455 2.318-.69 3.467 1.38 2.07 3.248 2.71 3.822 2.858.86.245 1.533.363 2.533.377v.683c0 .552.45 1 1 1s1-.448 1-1v-.867c1-.196 2.07-.536 2.956-1.052 2.037-1.19 3.414-3.095 3.95-5.365 1.11-4.71-1.906-9.71-6.906-11.267zm-3.922-5.524c.28-1.186 1.01-1.85 1.606-2.198.11-.065.316-.103.316-.156v6.942c-1-1.1-2.316-2.92-1.922-4.59zm6 15.643c-.28 1.184-1.088 1.848-1.684 2.196-.11.064-.394.102-.394.155v-6.94c2 1.098 2.47 2.918 2.077 4.588z"/><path fill="#F5F6F7" class="fader" opacity="0" d="M248 133.336v-8.265c0 .015.616.062 1.036.184.062.018.012.033.074.046.005 0 .463.198.845.77.767 1.15 2.29 1.46 3.44.693 1.147-.766 1.443-2.318.678-3.467-1.38-2.068-3.106-2.708-3.682-2.857-.86-.246-2.39-.364-2.39-.378v-.683c0-.553-.448-1-1-1s-1 .447-1 1v.853c-1 .195-2.214.546-3.1 1.063-2.037 1.19-3.343 3.095-3.88 5.366-1.11 4.71 1.98 9.71 6.98 11.268v8.265c-1-.014-1.063-.06-1.483-.183-.062-.018-.234-.033-.296-.046-.004 0-.573-.197-.955-.77-.765-1.15-2.344-1.458-3.494-.694-1.147.766-1.473 2.318-.707 3.467 1.38 2.068 3.537 2.707 4.112 2.857.86.245 1.824.363 2.824.377v.683c0 .552.446 1 1 1s1-.448 1-1v-.867c1-.196 1.768-.535 2.652-1.052 2.037-1.19 3.564-3.095 4.1-5.365 1.113-4.71-2.752-9.708-6.752-11.267zm-4.224-5.524c.28-1.185 1.16-1.85 1.758-2.197.11-.065-.534-.103.466-.156v6.94c-2-1.1-2.617-2.92-2.224-4.588zm6 15.644c-.28 1.184-.938 1.848-1.533 2.196-.11.065-.243.103-.243.156v-6.94c1 1.097 2.17 2.918 1.775 4.588z"/></svg>