<svg class="medium-6 column slide-visual" xmlns="http://www.w3.org/2000/svg" width="500" height="420" viewBox="0 0 500 420"><path fill="#F6F7F7" d="M346.646 74.086c13.412 0 13.412-20.793 0-20.793-13.41 0-13.41 20.793 0 20.793z"/><path fill="#F6F7F7" d="M356.84 74.23c-.6 0-1.166.117-1.715.288-4.876 1.134-8.527 1.745-13.607.956-4.087-.64-9.633-.525-9.633 5.26v18.752c0 7.726 11.587 7.338 11.587 0V92.32s.08-.396.37-.396c.465-.093.52.397.52.397v7.08c0 3.688-2.998 6.686-6.685 6.686h-.39v12.955c0 5.53 7.266 7.802 10.473 3.39.837-.92 1.113-2.177 1.113-3.39v-16.859s.078-.396.367-.396c.445-.088.514.34.52.382l.007 16.875c0 1.547-.55 2.95-1.437 4.085 3.523 3.54 9.9 1.03 9.9-4.084V85.877"/><path fill="#F6F7F7" d="M195.425 224.673c13.412 0 13.412-20.794 0-20.794-13.41 0-13.41 20.793 0 20.793z"/><path fill="#F6F7F7" d="M205.62 224.815c-.6 0-1.167.12-1.715.29-4.876 1.134-8.528 1.745-13.608.955-4.087-.64-9.632-.525-9.632 5.262v18.75c0 7.727 11.586 7.34 11.586 0v-7.164s.082-.397.37-.397c.466-.092.522.398.522.398v7.08c0 3.687-2.998 6.685-6.685 6.685h-.39v12.954c0 5.527 7.266 7.802 10.472 3.39.836-.92 1.113-2.178 1.113-3.39v-16.86s.078-.397.367-.397c.445-.088.513.34.52.383l.006 16.875c0 1.547-.55 2.95-1.436 4.084 3.523 3.54 9.9 1.03 9.9-4.084v-27.165s.08-.397.368-.397c.465-.095.525.397.525.397v11.16c2.062-.887 3.508-2.934 3.508-5.322v-17.69c.002-3.2-2.59-5.795-5.79-5.795z"/><g fill="#FFF"><path d="M162.73 385.303c1.6 1.464 2.4 3.5 2.4 6.107 0 2.61-.78 4.673-2.34 6.193-1.562 1.52-3.94 2.28-7.142 2.28h-5.735v-16.776h5.928c2.992 0 5.29.732 6.89 2.196zm-2.75 9.972c.92-.865 1.38-2.12 1.38-3.77s-.46-2.915-1.38-3.803c-.92-.89-2.332-1.332-4.235-1.332h-2.09v10.2h2.377c1.712 0 3.03-.43 3.948-1.295z"/><path d="M174.8 390.14c-1.07 0-1.87.38-2.4 1.14-.526.76-.79 1.764-.79 3.012v5.592h-3.6v-12.912h3.6v1.704c.463-.528 1.043-.976 1.74-1.344s1.403-.56 2.123-.576l.024 3.384h-.696z"/><path d="M178.173 385.326c-.408-.407-.612-.907-.612-1.5 0-.592.205-1.092.613-1.5.408-.407.908-.61 1.5-.61s1.092.203 1.5.61c.408.408.612.908.612 1.5 0 .593-.204 1.093-.612 1.5-.408.408-.908.613-1.5.613s-1.092-.206-1.5-.614zm3.3 14.557h-3.6V386.97h3.6v12.913z"/><path d="M188.36 399.883l-5.11-12.936h3.743l3.216 8.136 3.215-8.136h3.744l-5.113 12.936h-3.697z"/><path d="M210.13 398.01c-1.457 1.377-3.165 2.064-5.125 2.064s-3.58-.604-4.86-1.812c-1.28-1.208-1.92-2.827-1.92-4.86 0-2.03.652-3.647 1.957-4.848 1.304-1.2 2.844-1.8 4.62-1.8 1.775 0 3.283.536 4.523 1.608s1.86 2.543 1.86 4.416v1.92h-9.408c.11.703.48 1.28 1.104 1.728s1.33.672 2.113.672c1.264 0 2.304-.423 3.12-1.272l2.016 2.185zm-3.457-7.655c-.496-.416-1.1-.625-1.812-.625s-1.363.217-1.955.648-.937 1.016-1.032 1.752h5.664c-.08-.767-.368-1.36-.864-1.775z"/><path d="M230.266 398.443c-1.345 1.088-2.9 1.63-4.668 1.63-1.77 0-3.22-.45-4.356-1.354-1.137-.905-1.704-2.14-1.704-3.71 0-1.76 1.176-3.318 3.528-4.68-.528-.64-.912-1.203-1.152-1.69s-.36-1.06-.36-1.717c0-1.36.492-2.4 1.477-3.12.984-.72 2.148-1.08 3.493-1.08 1.344 0 2.49.348 3.443 1.044s1.43 1.668 1.43 2.916c0 1.568-1.146 3.024-3.434 4.368.896 1.12 1.568 1.93 2.017 2.425.398-.735.702-1.512.91-2.328l2.81 2.016c-.37 1.01-.817 1.945-1.345 2.81l2.376 2.35-2.375 2.257-2.09-2.137zm-6.456-1.92c.464.367 1.063.55 1.8.55.735 0 1.527-.35 2.376-1.054-1.168-1.233-2.177-2.354-3.024-3.362-1.232.77-1.848 1.593-1.848 2.473 0 .56.23 1.024.696 1.393zm2.71-10.968c-.352 0-.668.124-.947.372-.28.25-.42.585-.42 1.008 0 .425.32 1.036.96 1.837 1.2-.64 1.8-1.24 1.8-1.8 0-.465-.144-.817-.432-1.057-.287-.24-.607-.36-.96-.36z"/><path d="M258.633 389.322l-4.536 9.168h-2.23l-4.514-9.168v10.56h-3.743V383.11h5.063l4.32 9.215 4.344-9.215h5.04v16.775h-3.744v-10.56z"/><path d="M279.057 393.427c0 1.872-.648 3.448-1.943 4.728-1.297 1.28-2.925 1.92-4.885 1.92s-3.59-.64-4.885-1.92c-1.296-1.28-1.944-2.855-1.944-4.728s.65-3.452 1.945-4.74c1.296-1.288 2.924-1.932 4.884-1.932s3.587.644 4.884 1.933c1.294 1.287 1.943 2.867 1.943 4.74zm-10.032 0c0 1.056.3 1.917.9 2.58.6.664 1.367.996 2.303.996.937 0 1.705-.332 2.305-.996.6-.663.9-1.524.9-2.58s-.3-1.92-.9-2.592c-.6-.673-1.368-1.01-2.305-1.01-.936 0-1.703.337-2.304 1.01-.6.672-.9 1.536-.9 2.592z"/><path d="M285.777 389.562v5.784c0 .496.127.884.383 1.164s.56.42.912.42c.672 0 1.24-.304 1.705-.91l1.344 2.52c-1.12 1.022-2.3 1.534-3.54 1.534-1.24 0-2.287-.407-3.143-1.224-.857-.815-1.285-1.928-1.285-3.336v-5.952h-1.512v-2.592h1.512v-3.863h3.625v3.863h3.12v2.592h-3.12z"/><path d="M292.34 385.326c-.407-.407-.61-.907-.61-1.5 0-.592.203-1.092.61-1.5.408-.407.908-.61 1.5-.61s1.093.203 1.5.61c.408.408.613.908.613 1.5 0 .593-.205 1.093-.613 1.5-.407.408-.908.613-1.5.613s-1.092-.206-1.5-.614zm3.3 14.557h-3.6V386.97h3.6v12.913z"/><path d="M302.528 399.883l-5.112-12.936h3.744l3.217 8.136 3.215-8.136h3.744l-5.11 12.936h-3.698z"/><path d="M323.912 399.883h-3.384v-1.56c-.93 1.167-2.076 1.75-3.444 1.75-1.367 0-2.516-.395-3.443-1.187-.928-.792-1.392-1.848-1.392-3.168s.48-2.308 1.44-2.964c.96-.655 2.27-.983 3.936-.983h2.688v-.07c0-1.378-.73-2.065-2.184-2.065-.625 0-1.285.124-1.98.372-.696.248-1.284.556-1.764.924l-1.608-2.326c1.696-1.232 3.632-1.85 5.808-1.85 1.568 0 2.848.393 3.84 1.177s1.488 2.025 1.488 3.72v8.233zm-3.624-4.92v-.624h-2.256c-1.44 0-2.16.447-2.16 1.343 0 .464.172.82.517 1.068.343.25.835.373 1.475.373s1.204-.195 1.692-.588c.487-.392.73-.916.73-1.572z"/><path d="M331.353 389.562v5.784c0 .496.128.884.384 1.164s.56.42.912.42c.67 0 1.24-.304 1.703-.91l1.345 2.52c-1.12 1.022-2.3 1.534-3.54 1.534s-2.29-.407-3.145-1.224c-.856-.815-1.284-1.928-1.284-3.336v-5.952h-1.513v-2.592h1.512v-3.863h3.623v3.863h3.12v2.592h-3.12z"/><path d="M337.916 385.326c-.408-.407-.61-.907-.61-1.5 0-.592.202-1.092.61-1.5.408-.407.908-.61 1.5-.61s1.092.203 1.5.61c.408.408.612.908.612 1.5 0 .593-.204 1.093-.612 1.5-.408.408-.908.613-1.5.613s-1.092-.206-1.5-.614zm3.3 14.557h-3.6V386.97h3.6v12.913z"/><path d="M357.536 393.427c0 1.872-.648 3.448-1.944 4.728-1.296 1.28-2.924 1.92-4.884 1.92s-3.588-.64-4.884-1.92c-1.297-1.28-1.944-2.855-1.944-4.728s.647-3.452 1.944-4.74c1.296-1.288 2.924-1.932 4.884-1.932s3.588.644 4.884 1.933c1.296 1.287 1.944 2.867 1.944 4.74zm-10.032 0c0 1.056.3 1.917.9 2.58.6.664 1.367.996 2.304.996s1.704-.332 2.304-.996c.6-.663.9-1.524.9-2.58s-.3-1.92-.9-2.592c-.6-.673-1.367-1.01-2.304-1.01s-1.704.337-2.304 1.01c-.6.672-.9 1.536-.9 2.592z"/><path d="M363.8 392.683v7.2h-3.6V386.97h3.6v1.44c1.087-1.104 2.31-1.655 3.67-1.655 1.36 0 2.5.48 3.42 1.44.92.96 1.382 2.24 1.382 3.84v7.848h-3.6v-7.296c0-1.983-.73-2.976-2.185-2.976-.72 0-1.35.26-1.884.78-.537.52-.804 1.285-.804 2.293z"/></g><g fill="#FFF"><path d="M47.936 346.3v-3.743h6.89l-6.89-6.336v-4.63l7.416 6.672c.8-.576 2.292-1.64 4.477-3.192 2.183-1.552 3.81-2.712 4.883-3.48v4.368l-6.624 4.92 1.87 1.68h4.753v3.744H47.936z"/><path d="M57.512 326.19h7.2v3.6H51.8v-3.6h1.44c-1.104-1.09-1.656-2.313-1.656-3.673 0-1.36.48-2.5 1.44-3.42.96-.92 2.24-1.38 3.84-1.38h7.848v3.6h-7.296c-1.983 0-2.977.728-2.977 2.184 0 .72.26 1.35.78 1.885.52.537 1.284.804 2.292.804z"/><path d="M58.256 301.54c1.872 0 3.448.65 4.73 1.945s1.92 2.925 1.92 4.884c0 1.96-.64 3.587-1.92 4.884-1.28 1.295-2.857 1.943-4.73 1.943s-3.452-.648-4.74-1.943c-1.287-1.297-1.932-2.924-1.932-4.885 0-1.96.645-3.59 1.932-4.885 1.288-1.296 2.868-1.944 4.74-1.944zm0 10.033c1.056 0 1.916-.3 2.58-.9.664-.6.996-1.368.996-2.304s-.332-1.705-.996-2.305c-.664-.6-1.524-.9-2.58-.9s-1.92.3-2.592.9c-.672.6-1.008 1.368-1.008 2.304s.336 1.703 1.008 2.304c.672.6 1.536.9 2.592.9z"/><path d="M64.712 292.397v3.72L51.8 300.51v-3.72l7.8-2.52-7.8-2.52v-3.48l7.8-2.52-7.8-2.522v-3.744l12.912 4.392v3.744l-7.032 2.376 7.032 2.4z"/><path d="M64.712 273.87v3.6H46.904v-3.6h17.808z"/><path d="M62.84 259.277c1.376 1.457 2.064 3.164 2.064 5.124s-.604 3.58-1.812 4.86-2.828 1.92-4.86 1.92c-2.03 0-3.647-.65-4.848-1.955s-1.8-2.845-1.8-4.62.536-3.283 1.608-4.523c1.07-1.24 2.544-1.86 4.416-1.86h1.92v9.407c.704-.112 1.28-.48 1.728-1.105.448-.624.672-1.328.672-2.11 0-1.265-.424-2.306-1.27-3.122l2.182-2.016zm-7.656 3.456c-.416.496-.624 1.1-.624 1.812 0 .713.217 1.365.648 1.957s1.017.936 1.752 1.03v-5.663c-.768.08-1.36.368-1.776.863z"/><path d="M64.904 250.457c0 1.53-.648 2.893-1.944 4.092-1.296 1.2-2.904 1.8-4.824 1.8s-3.492-.584-4.716-1.752-1.836-2.536-1.836-4.104.552-2.85 1.656-3.84h-6.336v-3.6h17.808v3.6h-1.704c1.264 1.008 1.896 2.276 1.896 3.803zm-6.624 2.27c1.04 0 1.892-.313 2.556-.938.664-.624.996-1.353.996-2.185s-.332-1.54-.996-2.124c-.664-.583-1.52-.875-2.568-.875s-1.92.292-2.615.876c-.696.586-1.044 1.3-1.044 2.148 0 .85.35 1.576 1.055 2.185s1.575.913 2.615.913z"/><path d="M62.528 230.094c1.264 1.137 1.896 2.55 1.896 4.236 0 1.688-.572 3.112-1.716 4.27-1.144 1.16-2.672 1.74-4.584 1.74s-3.48-.595-4.704-1.786c-1.224-1.192-1.836-2.557-1.836-4.093s.632-2.807 1.896-3.814h-1.703v-3.6h11.256c1.15 0 2.176.2 3.07.6.897.4 1.602.936 2.113 1.607 1.056 1.328 1.584 2.896 1.584 4.704 0 .96-.156 1.94-.468 2.94-.312 1-.756 1.876-1.332 2.627l-2.712-1.39c.896-1.186 1.344-2.438 1.344-3.758 0-1.32-.328-2.364-.984-3.132s-1.696-1.15-3.12-1.15zm-4.55.504c-1.03 0-1.843.29-2.435.864-.592.576-.888 1.288-.888 2.136 0 .85.296 1.58.888 2.196s1.4.925 2.424.925 1.853-.302 2.484-.9.95-1.333.95-2.197-.313-1.584-.938-2.16c-.622-.576-1.45-.865-2.483-.865z"/><path d="M62.84 212.454c1.376 1.456 2.064 3.165 2.064 5.124 0 1.96-.604 3.58-1.812 4.86s-2.828 1.92-4.86 1.92c-2.03 0-3.647-.65-4.848-1.956-1.2-1.304-1.8-2.844-1.8-4.62s.536-3.284 1.608-4.524c1.07-1.24 2.544-1.86 4.416-1.86h1.92v9.41c.704-.113 1.28-.48 1.728-1.105.448-.624.672-1.327.672-2.112 0-1.263-.424-2.303-1.27-3.118l2.182-2.018zm-7.656 3.456c-.416.496-.624 1.1-.624 1.812s.217 1.363.648 1.955c.432.593 1.017.937 1.752 1.033v-5.664c-.768.08-1.36.368-1.776.864z"/><path d="M63.27 192.318c1.09 1.344 1.634 2.9 1.634 4.668 0 1.768-.452 3.22-1.356 4.356-.903 1.136-2.14 1.704-3.708 1.704-1.76 0-3.32-1.176-4.68-3.528-.64.528-1.204.912-1.692 1.152-.487.24-1.06.36-1.716.36-1.36 0-2.4-.492-3.12-1.476s-1.08-2.148-1.08-3.492c0-1.344.35-2.492 1.044-3.444.696-.952 1.668-1.428 2.916-1.428 1.568 0 3.024 1.144 4.368 3.432 1.12-.896 1.93-1.568 2.424-2.016-.735-.4-1.512-.704-2.328-.912l2.017-2.808c1.008.368 1.943.816 2.808 1.344l2.354-2.376 2.256 2.376-2.14 2.088zm-12.886 3.744c0 .352.124.668.372.948.248.28.584.42 1.008.42.425 0 1.036-.32 1.836-.96-.64-1.2-1.24-1.8-1.8-1.8-.464 0-.815.144-1.056.432-.24.288-.36.608-.36.96zm10.968 2.712c.368-.464.553-1.064.553-1.8 0-.735-.353-1.527-1.057-2.376-1.23 1.168-2.352 2.176-3.36 3.024.77 1.232 1.593 1.848 2.473 1.848.56 0 1.024-.23 1.392-.696z"/><path d="M47.936 166.88h3.336v8.35h3.456v-7.51h3.192v7.51h3.48v-8.614h3.312v12.36H47.936v-12.097z"/><path d="M51.8 160.495l3.456-2.208-3.456-2.28v-4.224l6.312 4.44 6.6-4.608v4.296l-3.552 2.52 3.552 2.45v4.15l-6.576-4.512-6.336 4.272v-4.295z"/><path d="M51.584 142.087c0-1.504.628-2.844 1.884-4.02 1.257-1.177 2.836-1.765 4.74-1.765s3.496.588 4.776 1.764c1.28 1.177 1.92 2.553 1.92 4.128 0 1.576-.632 2.845-1.896 3.805h6.36v3.6H51.8V146h1.44c-1.104-1.105-1.656-2.41-1.656-3.913zm6.684 3.96c1.05 0 1.904-.292 2.568-.876s.996-1.29.996-2.123-.332-1.56-.996-2.185-1.516-.936-2.556-.936-1.912.304-2.616.912-1.056 1.336-1.056 2.184c0 .85.348 1.564 1.044 2.148.696.585 1.568.877 2.616.877z"/><path d="M62.84 122.432c1.376 1.456 2.064 3.164 2.064 5.124s-.604 3.58-1.812 4.86c-1.208 1.28-2.828 1.92-4.86 1.92-2.03 0-3.647-.652-4.848-1.957-1.2-1.305-1.8-2.845-1.8-4.62 0-1.776.536-3.284 1.608-4.524 1.07-1.24 2.544-1.86 4.416-1.86h1.92v9.408c.704-.11 1.28-.48 1.728-1.104.448-.624.672-1.328.672-2.112 0-1.264-.424-2.304-1.27-3.12l2.182-2.016zm-7.656 3.456c-.416.496-.624 1.1-.624 1.812s.217 1.364.648 1.956 1.017.937 1.752 1.032v-5.664c-.768.08-1.36.368-1.776.864z"/><path d="M54.968 111.99c0 1.073.38 1.873 1.14 2.4.76.528 1.765.793 3.013.793h5.593v3.6H51.8v-3.6h1.704c-.528-.464-.976-1.044-1.344-1.74s-.56-1.404-.576-2.124l3.384-.025v.696z"/><path d="M50.156 108.62c-.408.407-.908.61-1.5.61s-1.093-.203-1.5-.61c-.408-.41-.612-.91-.612-1.5s.204-1.093.612-1.5c.407-.41.908-.613 1.5-.613s1.092.204 1.5.612c.407.407.61.907.61 1.5s-.203 1.09-.61 1.5zm14.556-3.3v3.6H51.8v-3.6h12.912z"/><path d="M62.84 90.728c1.376 1.456 2.064 3.164 2.064 5.124s-.604 3.58-1.812 4.86c-1.208 1.28-2.828 1.92-4.86 1.92-2.03 0-3.647-.652-4.848-1.957-1.2-1.304-1.8-2.844-1.8-4.62 0-1.775.536-3.283 1.608-4.523 1.07-1.24 2.544-1.86 4.416-1.86h1.92v9.408c.704-.11 1.28-.48 1.728-1.104.448-.624.672-1.328.672-2.112 0-1.264-.424-2.304-1.27-3.12l2.182-2.016zm-7.656 3.456c-.416.496-.624 1.1-.624 1.812s.217 1.364.648 1.956 1.017.937 1.752 1.032V93.32c-.768.08-1.36.368-1.776.864z"/><path d="M57.512 83.48h7.2v3.6H51.8v-3.6h1.44c-1.104-1.09-1.656-2.313-1.656-3.673 0-1.36.48-2.5 1.44-3.42.96-.92 2.24-1.38 3.84-1.38h7.848v3.6h-7.296c-1.983 0-2.977.73-2.977 2.184 0 .72.26 1.35.78 1.885.52.537 1.284.804 2.292.804z"/><path d="M61.712 65.55c0-1.198-.6-2.278-1.8-3.238l2.4-2.137c1.728 1.665 2.592 3.465 2.592 5.4 0 1.937-.612 3.572-1.836 4.908-1.225 1.336-2.824 2.004-4.8 2.004-1.977 0-3.585-.676-4.824-2.028-1.24-1.353-1.86-2.956-1.86-4.813 0-.928.192-1.868.576-2.82.384-.95.952-1.788 1.704-2.508l2.447 1.87c-.494.417-.878.925-1.15 1.524-.272.6-.408 1.196-.408 1.788 0 .944.31 1.757.924 2.437.616.68 1.473 1.02 2.568 1.02s1.948-.34 2.556-1.02c.608-.68.912-1.477.912-2.39z"/><path d="M62.84 46.592c1.376 1.456 2.064 3.164 2.064 5.124s-.604 3.58-1.812 4.86c-1.208 1.28-2.828 1.92-4.86 1.92-2.03 0-3.647-.652-4.848-1.957-1.2-1.305-1.8-2.845-1.8-4.62 0-1.776.536-3.284 1.608-4.524 1.07-1.24 2.544-1.86 4.416-1.86h1.92v9.408c.704-.11 1.28-.48 1.728-1.104.448-.624.672-1.328.672-2.112 0-1.264-.424-2.304-1.27-3.12l2.182-2.016zm-7.656 3.456c-.416.496-.624 1.1-.624 1.812s.217 1.364.648 1.956 1.017.937 1.752 1.032v-5.664c-.768.08-1.36.368-1.776.864z"/></g><path fill="none" stroke="#F6F7F7" stroke-width="2" stroke-miterlimit="10" d="M417.82 357.952s10.36 4.678 14.4 9.934c0 0 .383.604.43 1.02.05.416-.353 1.095-.353 1.095-3.89 5.367-14.11 10.345-14.11 10.345"/><path fill="none" stroke="#F7D515" stroke-width="2" stroke-miterlimit="10" d="M386.92 255.467s2.14-4.742 4.55-6.592c0 0 .274-.177.466-.197.19-.023.5.162.5.162 2.458 1.78 4.736 6.46 4.736 6.46"/><path fill="none" stroke="#F6F7F7" stroke-width="2" stroke-miterlimit="10" d="M418.66 369.148H101"/><path fill="none" stroke="#F6F7F7" stroke-width="2" stroke-miterlimit="10" d="M277.064 21.504v285.128"/><path fill="none" stroke="#F6F7F7" stroke-width="2" stroke-miterlimit="10" d="M72.56 31.02s4.677-10.358 9.933-14.4c0 0 .604-.382 1.02-.43.416-.05 1.095.354 1.095.354 5.367 3.89 10.344 14.11 10.344 14.11"/><path fill="none" stroke="#F6F7F7" stroke-width="2" stroke-miterlimit="10" d="M83.755 30.18V350"/><path fill="#9AD7DE" stroke="#F7D515" stroke-width="2" stroke-miterlimit="10" d="M220.926 264.398l-16.266-16.27 16.266-16.263-8.623-8.624-16.264 16.268-16.27-16.267-8.622 8.625 16.267 16.264-16.267 16.268 8.622 8.622 16.27-16.267 16.265 16.267z"/><path fill="none" stroke="#F7D515" stroke-width="2" stroke-miterlimit="10" d="M397.48 227.92h-11.125v12.345H374.6v12.346h-12.347v12.344h-11.758V277.3H337.82"/><path fill="none" stroke="#F6F7F7" stroke-width="2" stroke-miterlimit="10" d="M419.63 164.068H134.5"/><path fill="#F6F7F7" d="M347.26 224.384c13.41 0 13.41-20.794 0-20.794s-13.41 20.794 0 20.794z"/><path fill="#F6F7F7" d="M357.454 224.526c-.6 0-1.167.118-1.715.29-4.878 1.134-8.53 1.745-13.61.955-4.086-.638-9.63-.524-9.63 5.263v18.75c0 7.727 11.585 7.34 11.585 0v-7.164s.08-.398.37-.398c.465-.093.52.397.52.397v7.077c0 3.69-2.997 6.687-6.684 6.687h-.39v12.954c0 5.527 7.266 7.8 10.473 3.39.837-.92 1.114-2.178 1.114-3.39v-16.86s.078-.397.367-.397c.444-.087.513.34.52.384l.006 3.998v5.136c3.58 1.82 8.465-.66 8.465-5.136v-14.288s.078-.397.367-.397c.466-.096.526.397.526.397v11.16c2.062-.887 3.508-2.934 3.508-5.323v-17.688c0-3.2-2.593-5.796-5.792-5.796z"/><path fill="#F7D515" d="M368.694 62.524c.244-.29.772-1.854 1.337-3.79 1.554-.168 3.27-1.003 4.696-2.43 2.587-2.587 3.24-6.13 1.458-7.912-1.244-1.244-3.347-1.298-5.383-.34-.374-.344-.692-.564-.692-.564s-4.12.645-5.45.645c-1.333 0-5.452-.645-5.452-.645s-.262.18-.59.47c-2.06-.995-4.196-.956-5.455.303-1.78 1.783-1.128 5.326 1.46 7.913 1.404 1.405 3.09 2.233 4.62 2.418.582 2.004 1.13 3.64 1.38 3.934.673.794 2.12 1.29 2.12 1.29s1.165 1.167 0 2c-.71.25-.71.25-1.085.542-.75.208-.835.446-1.21.885-.832.542-.957 1.76-.957 1.76h10.338s-.125-1.218-.958-1.76c-.374-.438-.46-.63-1.21-.837-.374-.293-.374-.316-1.083-.566-1.166-.833 0-2.01 0-2.01s1.446-.51 2.12-1.303zm-13.203-7.222c-1.888-1.89-2.364-4.475-1.063-5.776.77-.77 1.988-.902 3.246-.504-.185.288-.325.6-.37.92-.1.695.668 4.036 1.506 7.107-1.106-.148-2.31-.74-3.32-1.748zm19.43-5.645c1.3 1.3.824 3.886-1.065 5.775-1.03 1.03-2.263 1.623-3.386 1.753.852-3.108 1.645-6.54 1.543-7.244-.04-.275-.158-.542-.306-.797 1.245-.384 2.45-.248 3.213.514z"/><path fill="#F6F7F7" d="M359.167 85.318c-2.273 2.273-5.96 2.273-8.233 0l-.252-.25c-2.273-2.275-2.273-5.96 0-8.235l10.15-10.15c2.274-2.274 5.96-2.274 8.234 0l.252.25c2.273 2.274 2.273 5.96 0 8.234l-10.15 10.15z"/><path fill="none" stroke="#F7D515" stroke-width="2" stroke-miterlimit="10" d="M392 255v22"/><path fill="none" stroke="#F7D515" stroke-width="2" stroke-miterlimit="10" d="M145.675 93.963s-4.742-2.14-6.592-4.548c0 0-.177-.275-.197-.467-.023-.19.162-.5.162-.5 1.78-2.458 6.46-4.736 6.46-4.736"/><path fill="none" stroke="#F7D515" stroke-width="2" stroke-miterlimit="10" d="M145 89h7"/><path fill="none" stroke="#F7D515" stroke-width="2" stroke-miterlimit="10" d="M157 89h7"/><path fill="none" stroke="#F7D515" stroke-width="2" stroke-miterlimit="10" d="M169 89h7"/><path fill="none" stroke="#F7D515" stroke-width="2" stroke-miterlimit="10" d="M247.21 83.712s4.74 2.14 6.59 4.548c0 0 .178.275.198.467.023.19-.162.5-.162.5-1.78 2.458-6.46 4.736-6.46 4.736"/><path fill="none" stroke="#F7D515" stroke-width="2" stroke-miterlimit="10" d="M248 89h-7"/><path fill="none" stroke="#F7D515" stroke-width="2" stroke-miterlimit="10" d="M236 89h-7"/><path fill="none" stroke="#F7D515" stroke-width="2" stroke-miterlimit="10" d="M224 89h-7"/><path fill="none" stroke="#F7D515" stroke-width="2" stroke-miterlimit="10" d="M191.316 38.07s2.14-4.74 4.548-6.59c0 0 .275-.178.467-.198.19-.023.5.162.5.162 2.46 1.78 4.737 6.46 4.737 6.46"/><path fill="none" stroke="#F7D515" stroke-width="2" stroke-miterlimit="10" d="M196 37v7"/><path fill="none" stroke="#F7D515" stroke-width="2" stroke-miterlimit="10" d="M196 49v3"/><path fill="none" stroke="#F7D515" stroke-width="2" stroke-miterlimit="10" d="M201.567 139.605s-2.14 4.742-4.548 6.592c0 0-.276.177-.468.197-.19.023-.5-.162-.5-.162-2.458-1.78-4.736-6.46-4.736-6.46"/><path fill="none" stroke="#F7D515" stroke-width="2" stroke-miterlimit="10" d="M196 140v-7"/><path fill="none" stroke="#F7D515" stroke-width="2" stroke-miterlimit="10" d="M196 128v-3"/><g><path fill="#F6F7F7" d="M196.174 74.254c13.412 0 13.412-20.793 0-20.793-13.41 0-13.41 20.794 0 20.794z"/><path fill="#F6F7F7" d="M206.37 74.398c-.6 0-1.167.118-1.715.29-4.876 1.133-8.528 1.745-13.608.955-4.087-.64-9.632-.525-9.632 5.26v18.752c0 7.726 11.586 7.338 11.586 0V92.49s.082-.397.37-.397c.466-.093.522.397.522.397v7.08c0 3.687-2.998 6.685-6.685 6.685h-.39v12.955c0 5.528 7.266 7.8 10.472 3.39.836-.92 1.113-2.178 1.113-3.39V102.35s.078-.397.367-.397c.445-.088.513.34.52.382l.006 16.875c0 1.546-.55 2.95-1.436 4.084 3.523 3.54 9.9 1.03 9.9-4.084V92.046s.08-.397.368-.397c.465-.097.525.396.525.396v11.162c2.062-.888 3.508-2.935 3.508-5.324v-17.69c.002-3.2-2.59-5.796-5.79-5.796z"/></g><path fill="#F7D515" d="M349.838 47.607c-.142-.433-.638-.66-1.104-.507-.468.153-.73.628-.59 1.06.044.138.13.243.234.334-.348.965-1.04 1.75-2.016 2.07-1.606.525-3.705-1.4-4.624-3.264.245-.22.358-.55.256-.864-.14-.432-.635-.66-1.102-.506-.47.153-.733.628-.592 1.062.1.303.376.496.69.537.365 2.05-.188 4.853-1.8 5.38-.963.314-1.967.102-2.81-.452.042-.147.057-.3.008-.453-.142-.432-.636-.66-1.104-.506s-.73.627-.59 1.06c.134.408.58.62 1.023.517l2.566 2.82c2.96-3.2 5.85-4.182 10.6-3.47l.407-3.785c.437-.167.686-.617.548-1.035z"/></svg>