<svg class="medium-12 column slide-visual" xmlns="http://www.w3.org/2000/svg" width="465" height="420" viewBox="0 0 465 420" data-400-center="transform: translateY(0px)" data-center-center="transform: translateY(-40px)"><path fill="none" stroke="#F5F6F7" stroke-width="5" stroke-linecap="round" stroke-linejoin="round" stroke-miterlimit="10" d="M356.15 417.14c19.315 0 34.978-15.663 34.978-34.98 0 0-110.773-187.775-116.538-207.24-5.764-19.464-.353-62.154-.353-62.154H222.39s5.412 42.69-.353 62.154C216.272 194.385 105.5 382.16 105.5 382.16c0 19.316 15.66 34.98 34.978 34.98h215.67z"/><path fill="none" stroke="#F5F6F7" stroke-linecap="round" stroke-linejoin="round" stroke-miterlimit="10" d="M179.58 254.42s14.265 6.357 40.923 4.346c26.658-2.013 32.19-4.666 43.757-4.345 11.568.323 31.824 1.918 41.747-.023s12.38 2.38 12.38 2.38"/><path fill="#F6F7F7" d="M156.514 377.066c4.7-1.977 1.637-9.266-3.064-7.29s-1.638 9.267 3.064 7.29zM160.108 375.614c-.21.09-.392.214-.56.354-1.54 1.115-2.73 1.87-4.628 2.34-1.527.377-3.454 1.235-2.602 3.263l2.762 6.573c1.14 2.71 5.144.867 4.062-1.706l-.013-.03-.562-1.333-.482-1.148s-.032-.15.07-.193c.15-.102.242.062.242.062l.5 1.188.544 1.294c.543 1.292-.067 2.786-1.36 3.33l-.136.057 1.908 4.54c.815 1.938 3.698 1.664 4.17-.354.158-.447.07-.93-.108-1.353l-2.468-5.873-.015-.038s-.03-.15.07-.192c.143-.097.23.042.24.057l2.486 5.916c.227.54.242 1.115.1 1.642 1.755.722 3.62-1.097 2.867-2.89l-2.316-5.51-.29-.69-1.396-3.322s-.03-.15.07-.193c.15-.102.242.062.242.062l1.645 3.913c.594-.615.8-1.547.448-2.384l-2.607-6.2c-.47-1.124-1.76-1.65-2.882-1.18zM352.88 385.95c4.714 1.95 7.738-5.355 3.028-7.307-4.71-1.952-7.738 5.354-3.027 7.306zM356.44 387.482c-.21-.086-.426-.13-.643-.148-1.878-.31-3.25-.626-4.92-1.645-1.342-.82-3.308-1.587-4.15.445L344 392.723c-1.123 2.715 3.002 4.266 4.07 1.688l.012-.03.554-1.336.478-1.15s.085-.13.187-.086c.178.034.127.215.127.215l-.493 1.19-.537 1.297c-.535 1.296-2.027 1.913-3.32 1.377l-.14-.058-1.885 4.55c-.804 1.942 1.42 3.8 3.186 2.716.43-.203.71-.604.885-1.03l2.438-5.885.017-.037s.086-.128.187-.086c.17.035.133.194.127.21h.004l-2.456 5.93c-.226.543-.622.956-1.098 1.226.724 1.756 3.328 1.802 4.07.007l2.29-5.524.286-.69 1.378-3.33s.086-.127.187-.086c.18.035.127.217.127.217l-1.624 3.92c.854-.01 1.66-.52 2.01-1.357l2.573-6.216c.464-1.128-.07-2.416-1.195-2.882zM239.322 376.128c-3.08-4.065-9.382.707-6.305 4.772 3.08 4.066 9.384-.708 6.305-4.772zM237.025 373.004c.14.182.304.327.48.453 1.464 1.218 2.488 2.185 3.413 3.906.745 1.386 2.053 3.04 3.807 1.712l5.685-4.305c2.34-1.774-.435-5.197-2.66-3.513l-.025.02-1.153.875-.993.75s-.14.068-.205-.02c-.136-.12 0-.25 0-.25l1.027-.777 1.118-.848c1.117-.847 2.717-.626 3.562.49l.09.12 3.926-2.974c1.677-1.27.696-3.994-1.376-3.952-.473-.042-.917.162-1.283.44l-5.08 3.847-.032.024s-.14.068-.204-.02c-.13-.114-.016-.233-.004-.245h-.002l5.116-3.875c.47-.354 1.02-.51 1.565-.503.264-1.88-1.96-3.237-3.51-2.064l-4.766 3.61-.598.45-2.872 2.177s-.14.066-.204-.02c-.136-.12 0-.25 0-.25l3.384-2.563c-.742-.422-1.696-.39-2.42.158l-5.363 4.06c-.97.737-1.158 2.118-.425 3.09zM210.64 301.24c-3.01 2.28.525 6.95 3.538 4.67 3.012-2.282-.526-6.953-3.537-4.67zM208.326 302.94c.135-.103.243-.225.336-.356.902-1.084 1.62-1.843 2.894-2.53 1.027-.55 2.253-1.52 1.27-2.818l-3.19-4.213c-1.315-1.735-3.852.32-2.604 1.97l.015.02.647.855.557.735s.05.103-.014.15c-.088.102-.185 0-.185 0l-.576-.76-.627-.83c-.628-.827-.464-2.012.364-2.638l.09-.067-2.204-2.91c-.94-1.24-2.96-.516-2.93 1.02-.03.35.12.68.328.952l2.85 3.763.018.024s.05.103-.015.152c-.085.094-.173.01-.182 0v.003l-2.87-3.793c-.264-.346-.38-.755-.374-1.16-1.392-.194-2.398 1.453-1.53 2.6l2.676 3.533.335.443 1.612 2.128s.05.103-.015.15c-.09.102-.185 0-.185 0l-1.9-2.506c-.31.55-.29 1.256.118 1.793l3.01 3.975c.543.72 1.567.86 2.286.315zM234.31 282.612c-.338 2.18 3.04 2.7 3.377.524.336-2.177-3.04-2.7-3.377-.524zM234.03 284.265c.014-.098.01-.192-.005-.286-.062-.82-.07-1.43.188-2.234.207-.647.328-1.55-.61-1.697l-3.047-.473c-1.254-.194-1.484 1.696-.292 1.882h.014l.618.097.532.082s.062.02.056.07c.003.077-.078.074-.078.074l-.55-.086-.6-.093c-.6-.093-1.01-.656-.917-1.253l.01-.064-2.105-.326c-.898-.14-1.45.983-.814 1.614.13.16.327.237.524.268l2.72.42.018.005s.063.02.055.068c.003.073-.068.074-.075.074l-2.74-.425c-.25-.038-.466-.163-.627-.335-.663.483-.417 1.582.413 1.71l2.553.397.32.048 1.54.238s.06.023.055.07c.004.077-.077.075-.077.075l-1.813-.28c.092.355.388.644.776.704l2.874.445c.518.08 1.004-.275 1.085-.795zM332.71 349.777c1.157 1.034 2.757-.757 1.604-1.792-1.157-1.033-2.758.76-1.603 1.792zM333.578 350.576c-.053-.047-.11-.08-.17-.107-.508-.28-.87-.51-1.246-.968-.303-.37-.788-.786-1.234-.29l-1.445 1.616c-.595.666.432 1.525 1 .894l.004-.008.294-.328.253-.28s.037-.028.062-.008c.047.028.016.074.016.074l-.26.293-.286.318c-.284.316-.773.344-1.09.062l-.035-.03-.998 1.116c-.427.476.024 1.23.64 1.098.144-.014.264-.1.358-.205l1.29-1.444.01-.01s.036-.028.06-.006c.047.027.02.07.017.072l.002.002-1.304 1.453c-.118.134-.273.214-.438.24.032.578.773.854 1.167.413l1.212-1.354.152-.172.728-.815s.038-.028.063-.006c.047.026.016.073.016.073l-.86.962c.244.083.526.02.712-.188l1.363-1.523c.247-.275.224-.698-.052-.944zM307.87 322.16c3.64 1.02 5.22-4.622 1.582-5.642-3.64-1.018-5.22 4.625-1.583 5.642zM310.626 322.975c-.164-.046-.326-.057-.488-.05-1.408-.063-2.445-.176-3.765-.777-1.06-.483-2.573-.873-3.012.696l-1.424 5.088c-.587 2.097 2.585 2.873 3.142.88l.007-.022.29-1.032.248-.89s.052-.102.13-.078c.134.01.112.146.112.146l-.258.92-.28 1c-.28 1-1.322 1.588-2.322 1.307l-.105-.028-.984 3.514c-.42 1.5 1.38 2.668 2.582 1.715.3-.186.47-.505.562-.836l1.27-4.546.01-.028s.052-.104.13-.08c.13.01.114.13.113.143h.002l-1.284 4.58c-.115.417-.372.757-.697.997.688 1.228 2.608 1.032 2.995-.354l1.195-4.267.15-.534.72-2.57s.052-.103.13-.08c.134.01.11.147.11.147l-.847 3.027c.626-.084 1.176-.53 1.356-1.18l1.345-4.8c.243-.87-.263-1.768-1.13-2.012zM263.4 290.816c3.06-2.22-.384-6.962-3.44-4.742-3.06 2.222.384 6.963 3.44 4.742zM265.75 289.16c-.138.1-.247.222-.343.352-.923 1.064-1.655 1.81-2.945 2.47-1.037.53-2.282 1.477-1.323 2.794l3.103 4.275c1.278 1.763 3.857-.242 2.64-1.916l-.013-.02-.63-.868-.543-.746s-.05-.104.02-.15c.088-.1.184.002.184.002l.562.773.61.84c.612.842.425 2.023-.416 2.633l-.09.064 2.146 2.953c.917 1.262 2.948.575 2.948-.96.04-.35-.104-.682-.307-.96l-2.774-3.817-.018-.024s-.05-.104.02-.15c.087-.095.17-.01.18 0h.002l2.794 3.85c.254.35.362.76.35 1.165 1.388.22 2.427-1.406 1.58-2.57l-2.603-3.585-.327-.448-1.567-2.162s-.048-.103.018-.15c.093-.098.187.005.187.005l1.848 2.544c.322-.542.314-1.25-.082-1.796l-2.927-4.032c-.533-.733-1.553-.893-2.283-.365zM300.04 274.986c2.27 1.303 4.293-2.218 2.023-3.52-2.272-1.303-4.292 2.218-2.022 3.52zM301.753 276.002c-.1-.06-.208-.094-.317-.117-.936-.28-1.613-.533-2.397-1.16-.63-.506-1.58-1.025-2.143-.045l-1.82 3.175c-.75 1.307 1.248 2.367 1.96 1.123l.01-.013.368-.645.318-.555s.052-.06.102-.03c.087.027.05.116.05.116l-.33.576-.358.624c-.357.624-1.158.84-1.78.482l-.066-.038-1.258 2.193c-.536.938.473 2.025 1.442 1.59.233-.073.4-.26.52-.465l1.626-2.836.013-.018s.05-.06.1-.03c.084.028.054.104.05.113h.003l-1.642 2.86c-.148.26-.378.444-.638.55.253.94 1.575 1.137 2.072.27l1.527-2.66.19-.334.922-1.604s.052-.06.1-.032c.09.03.05.12.05.12l-1.083 1.89c.434.05.88-.157 1.11-.562l1.72-2.994c.308-.54.12-1.232-.42-1.542zM180.388 349.07c2.888.774 4.086-3.702 1.2-4.476s-4.087 3.705-1.2 4.477zM182.575 349.69c-.13-.034-.258-.042-.386-.036-1.116-.037-1.938-.116-2.985-.58-.843-.372-2.044-.668-2.377.577l-1.082 4.04c-.445 1.662 2.072 2.248 2.495.667l.005-.018.22-.82.188-.705s.04-.08.102-.064c.105.008.09.115.09.115l-.196.73-.213.795c-.213.794-1.032 1.267-1.826 1.055l-.083-.023-.747 2.79c-.318 1.19 1.116 2.1 2.06 1.333.233-.15.366-.404.435-.665l.966-3.607.008-.023s.04-.08.102-.064c.1.008.09.103.09.112l-.973 3.634c-.088.332-.288.604-.543.797.555.964 2.072.79 2.367-.31l.907-3.386.114-.424.547-2.04s.04-.08.102-.063c.104.006.09.115.09.115l-.644 2.403c.495-.072.925-.43 1.062-.943l1.02-3.81c.185-.688-.224-1.397-.913-1.582z"/><g><path fill="#F6F7F7" d="M296.065 375.498c-2.05 2.177 1.325 5.354 3.374 3.178 2.048-2.178-1.327-5.354-3.375-3.178zM294.484 377.13c.09-.097.16-.205.215-.32.56-.965 1.02-1.65 1.923-2.355.728-.564 1.557-1.483.617-2.366l-3.043-2.866c-1.254-1.18-2.963.76-1.77 1.88l.013.014.618.583.53.5s.054.073.01.12c-.057.09-.145.025-.145.025l-.55-.518-.6-.564c-.6-.562-.627-1.51-.064-2.107l.06-.063-2.103-1.98c-.897-.843-2.377-.013-2.15 1.182.022.278.183.515.38.698l2.72 2.56.017.02s.053.072.01.118c-.056.086-.135.033-.143.028l-2.738-2.58c-.25-.233-.396-.538-.444-.853-1.112.03-1.68 1.448-.85 2.23l2.553 2.4.32.3 1.537 1.45s.053.073.008.12c-.055.09-.144.023-.144.023l-1.81-1.705c-.172.47-.06 1.018.327 1.384l2.87 2.7c.522.488 1.338.464 1.827-.056z"/></g><g><path fill="#F6F7F7" d="M235.47 335.825c.85 2.866 5.293 1.545 4.44-1.32-.85-2.865-5.294-1.544-4.44 1.32zM236.085 338.013c-.038-.128-.1-.24-.17-.347-.553-.97-.915-1.712-1.068-2.847-.123-.915-.5-2.094-1.736-1.726l-4.005 1.19c-1.65.492-.833 2.943.736 2.477l.02-.005.812-.242.7-.207s.09-.01.108.054c.05.094-.05.136-.05.136l-.726.216-.79.235c-.786.234-1.618-.217-1.853-1.005l-.023-.083-2.77.822c-1.18.35-1.204 2.05-.058 2.453.25.12.536.1.793.023l3.58-1.065.023-.006s.09-.01.108.052c.046.09-.04.13-.05.135l.002.002-3.606 1.07c-.33.1-.665.07-.963-.046-.533.98.41 2.182 1.5 1.856l3.36-1 .42-.124 2.024-.603s.092-.01.11.053c.05.093-.052.138-.052.138l-2.386.71c.32.385.85.564 1.36.412l3.78-1.123c.686-.203 1.076-.923.873-1.607z"/></g><g><path fill="#F6F7F7" d="M255.916 405.813c.41-2.046-2.762-2.68-3.17-.635-.41 2.046 2.762 2.68 3.17.635zM256.248 404.264c-.018.09-.017.182-.008.27.025.776.006 1.353-.27 2.103-.222.604-.374 1.454.51 1.63l2.858.572c1.178.232 1.473-1.545.354-1.768l-.014-.004-.58-.114-.498-.1s-.06-.024-.05-.07c0-.072.076-.066.076-.066l.517.104.563.11c.56.114.927.662.815 1.225l-.013.06 1.977.395c.843.17 1.41-.87.836-1.493-.115-.155-.3-.238-.482-.273l-2.556-.512-.016-.003s-.06-.024-.05-.068c0-.07.068-.068.073-.067l2.573.514c.235.048.433.174.58.344.645-.43.457-1.478-.32-1.634l-2.398-.48-.3-.06-1.445-.288s-.06-.025-.05-.07c0-.07.076-.065.076-.065l1.703.34c-.074-.342-.343-.626-.706-.698l-2.697-.54c-.485-.1-.96.215-1.06.704z"/></g><circle class="bubble" fill="none" stroke="#F6F7F7" stroke-miterlimit="10" cx="267.742" cy="221.179" r="9.31"/><circle class="bubble" fill="none" stroke="#F6F7F7" stroke-miterlimit="10" cx="239.174" cy="40.634" r="9.31"/><circle class="bubble" fill="none" stroke="#F6F7F7" stroke-miterlimit="10" cx="230.439" cy="198.732" r="5.146"/><circle class="bubble" fill="none" stroke="#F6F7F7" stroke-miterlimit="10" cx="257.423" cy="146.87" r="8.133"/><circle class="bubble" fill="none" stroke="#F6F7F7" stroke-miterlimit="10" cx="233.805" cy="90.059" r="5.084"/><circle class="bubble" fill="none" stroke="#F6F7F7" stroke-miterlimit="10" cx="250.032" cy="74.29" r="3.028"/></svg>